<mxfile host="app.diagrams.net" agent="Mozilla/5.0 (Windows NT 10.0; Win64; x64) AppleWebKit/537.36 (KHTML, like Gecko) Chrome/130.0.0.0 Safari/537.36 Edg/130.0.0.0" version="24.8.2" pages="3">
  <diagram name="Page-1" id="he-8-wJec8WXa_5y6hOY">
    <mxGraphModel dx="320" dy="993" grid="1" gridSize="10" guides="1" tooltips="1" connect="1" arrows="1" fold="1" page="1" pageScale="1" pageWidth="1100" pageHeight="850" math="0" shadow="0">
      <root>
        <mxCell id="0" />
        <mxCell id="1" parent="0" />
        <mxCell id="7WhXe6qwy-NCzyhs4hZX-1" value="&lt;font face=&quot;Times New Roman&quot;&gt;Konsumen&lt;/font&gt;" style="rounded=0;whiteSpace=wrap;html=1;hachureGap=4;fontFamily=Architects Daughter;fontSource=https%3A%2F%2Ffonts.googleapis.com%2Fcss%3Ffamily%3DArchitects%2BDaughter;" vertex="1" parent="1">
          <mxGeometry x="460" y="105" width="120" height="60" as="geometry" />
        </mxCell>
        <mxCell id="7WhXe6qwy-NCzyhs4hZX-2" value="&lt;u&gt;Email&lt;/u&gt;" style="ellipse;whiteSpace=wrap;html=1;fontFamily=Times New Roman;" vertex="1" parent="1">
          <mxGeometry x="360" y="90" width="80" height="50" as="geometry" />
        </mxCell>
        <mxCell id="7WhXe6qwy-NCzyhs4hZX-3" value="No Telepon" style="ellipse;whiteSpace=wrap;html=1;fontFamily=Times New Roman;" vertex="1" parent="1">
          <mxGeometry x="600" y="90" width="80" height="50" as="geometry" />
        </mxCell>
        <mxCell id="7WhXe6qwy-NCzyhs4hZX-4" value="Alamat" style="ellipse;whiteSpace=wrap;html=1;fontFamily=Times New Roman;" vertex="1" parent="1">
          <mxGeometry x="430" y="30" width="80" height="50" as="geometry" />
        </mxCell>
        <mxCell id="7WhXe6qwy-NCzyhs4hZX-5" value="Nama Konsumen" style="ellipse;whiteSpace=wrap;html=1;fontFamily=Times New Roman;" vertex="1" parent="1">
          <mxGeometry x="530" y="30" width="80" height="50" as="geometry" />
        </mxCell>
        <mxCell id="7WhXe6qwy-NCzyhs4hZX-6" value="&lt;font face=&quot;Times New Roman&quot;&gt;Transaksi Pembelian&lt;/font&gt;" style="rounded=0;whiteSpace=wrap;html=1;hachureGap=4;fontFamily=Architects Daughter;fontSource=https%3A%2F%2Ffonts.googleapis.com%2Fcss%3Ffamily%3DArchitects%2BDaughter;" vertex="1" parent="1">
          <mxGeometry x="130" y="212.5" width="120" height="60" as="geometry" />
        </mxCell>
        <mxCell id="7WhXe6qwy-NCzyhs4hZX-7" value="Total Harga" style="ellipse;whiteSpace=wrap;html=1;fontFamily=Times New Roman;" vertex="1" parent="1">
          <mxGeometry x="30" y="217.5" width="80" height="50" as="geometry" />
        </mxCell>
        <mxCell id="7WhXe6qwy-NCzyhs4hZX-8" value="Tanggal Transaksi" style="ellipse;whiteSpace=wrap;html=1;fontFamily=Times New Roman;" vertex="1" parent="1">
          <mxGeometry x="70" y="152.5" width="80" height="50" as="geometry" />
        </mxCell>
        <mxCell id="7WhXe6qwy-NCzyhs4hZX-9" value="&lt;u&gt;Nomor Transaksi&lt;/u&gt;" style="ellipse;whiteSpace=wrap;html=1;fontFamily=Times New Roman;" vertex="1" parent="1">
          <mxGeometry x="160" y="132.5" width="80" height="50" as="geometry" />
        </mxCell>
        <mxCell id="7WhXe6qwy-NCzyhs4hZX-10" value="Status Pembayaran" style="ellipse;whiteSpace=wrap;html=1;fontFamily=Times New Roman;" vertex="1" parent="1">
          <mxGeometry x="70" y="282.5" width="80" height="50" as="geometry" />
        </mxCell>
        <mxCell id="7WhXe6qwy-NCzyhs4hZX-11" value="&lt;font face=&quot;Times New Roman&quot;&gt;Transaksi Pemesanan&lt;/font&gt;" style="rounded=0;whiteSpace=wrap;html=1;hachureGap=4;fontFamily=Architects Daughter;fontSource=https%3A%2F%2Ffonts.googleapis.com%2Fcss%3Ffamily%3DArchitects%2BDaughter;" vertex="1" parent="1">
          <mxGeometry x="780" y="200" width="120" height="60" as="geometry" />
        </mxCell>
        <mxCell id="7WhXe6qwy-NCzyhs4hZX-12" value="&lt;u&gt;Nomor Pemesanan&lt;/u&gt;" style="ellipse;whiteSpace=wrap;html=1;fontFamily=Times New Roman;" vertex="1" parent="1">
          <mxGeometry x="790" y="125" width="80" height="50" as="geometry" />
        </mxCell>
        <mxCell id="7WhXe6qwy-NCzyhs4hZX-13" value="Nama Barang" style="ellipse;whiteSpace=wrap;html=1;fontFamily=Times New Roman;" vertex="1" parent="1">
          <mxGeometry x="900" y="135" width="80" height="50" as="geometry" />
        </mxCell>
        <mxCell id="7WhXe6qwy-NCzyhs4hZX-14" value="Tanggal Pemesanan" style="ellipse;whiteSpace=wrap;html=1;fontFamily=Times New Roman;" vertex="1" parent="1">
          <mxGeometry x="860" y="70" width="80" height="50" as="geometry" />
        </mxCell>
        <mxCell id="7WhXe6qwy-NCzyhs4hZX-15" value="Jumlah Pemesanan" style="ellipse;whiteSpace=wrap;html=1;fontFamily=Times New Roman;" vertex="1" parent="1">
          <mxGeometry x="960" y="250" width="80" height="50" as="geometry" />
        </mxCell>
        <mxCell id="7WhXe6qwy-NCzyhs4hZX-16" value="Total Harga" style="ellipse;whiteSpace=wrap;html=1;fontFamily=Times New Roman;" vertex="1" parent="1">
          <mxGeometry x="880" y="282.5" width="80" height="50" as="geometry" />
        </mxCell>
        <mxCell id="7WhXe6qwy-NCzyhs4hZX-17" value="Status Pembayaran" style="ellipse;whiteSpace=wrap;html=1;fontFamily=Times New Roman;" vertex="1" parent="1">
          <mxGeometry x="950" y="185" width="80" height="50" as="geometry" />
        </mxCell>
        <mxCell id="7WhXe6qwy-NCzyhs4hZX-23" value="&lt;font face=&quot;Times New Roman&quot;&gt;Barang&lt;/font&gt;" style="rounded=0;whiteSpace=wrap;html=1;hachureGap=4;fontFamily=Architects Daughter;fontSource=https%3A%2F%2Ffonts.googleapis.com%2Fcss%3Ffamily%3DArchitects%2BDaughter;" vertex="1" parent="1">
          <mxGeometry x="450" y="642" width="120" height="60" as="geometry" />
        </mxCell>
        <mxCell id="7WhXe6qwy-NCzyhs4hZX-24" value="&lt;u&gt;Nama Barang&lt;/u&gt;" style="ellipse;whiteSpace=wrap;html=1;fontFamily=Times New Roman;" vertex="1" parent="1">
          <mxGeometry x="377.5" y="733" width="80" height="50" as="geometry" />
        </mxCell>
        <mxCell id="7WhXe6qwy-NCzyhs4hZX-25" value="Harga Barang" style="ellipse;whiteSpace=wrap;html=1;fontFamily=Times New Roman;" vertex="1" parent="1">
          <mxGeometry x="335" y="662" width="80" height="50" as="geometry" />
        </mxCell>
        <mxCell id="7WhXe6qwy-NCzyhs4hZX-26" value="Stok" style="ellipse;whiteSpace=wrap;html=1;fontFamily=Times New Roman;" vertex="1" parent="1">
          <mxGeometry x="470" y="733" width="80" height="50" as="geometry" />
        </mxCell>
        <mxCell id="7WhXe6qwy-NCzyhs4hZX-27" value="Satuan Barang" style="ellipse;whiteSpace=wrap;html=1;fontFamily=Times New Roman;" vertex="1" parent="1">
          <mxGeometry x="570" y="733" width="80" height="50" as="geometry" />
        </mxCell>
        <mxCell id="7WhXe6qwy-NCzyhs4hZX-28" value="Jenis Barang" style="ellipse;whiteSpace=wrap;html=1;fontFamily=Times New Roman;" vertex="1" parent="1">
          <mxGeometry x="620" y="662" width="80" height="50" as="geometry" />
        </mxCell>
        <mxCell id="7WhXe6qwy-NCzyhs4hZX-29" value="&lt;font face=&quot;Times New Roman&quot;&gt;Pembayaran&lt;/font&gt;" style="rounded=0;whiteSpace=wrap;html=1;hachureGap=4;fontFamily=Architects Daughter;fontSource=https%3A%2F%2Ffonts.googleapis.com%2Fcss%3Ffamily%3DArchitects%2BDaughter;" vertex="1" parent="1">
          <mxGeometry x="457.5" y="427" width="120" height="60" as="geometry" />
        </mxCell>
        <mxCell id="7WhXe6qwy-NCzyhs4hZX-30" value="&lt;u&gt;Nomor Transaksi&lt;/u&gt;" style="ellipse;whiteSpace=wrap;html=1;fontFamily=Times New Roman;" vertex="1" parent="1">
          <mxGeometry x="437.5" y="508" width="80" height="50" as="geometry" />
        </mxCell>
        <mxCell id="7WhXe6qwy-NCzyhs4hZX-31" value="Jumlah Pembayaran" style="ellipse;whiteSpace=wrap;html=1;fontFamily=Times New Roman;" vertex="1" parent="1">
          <mxGeometry x="527.5" y="507" width="80" height="50" as="geometry" />
        </mxCell>
        <mxCell id="7WhXe6qwy-NCzyhs4hZX-32" value="Tanggal Pembayaran" style="ellipse;whiteSpace=wrap;html=1;fontFamily=Times New Roman;" vertex="1" parent="1">
          <mxGeometry x="600" y="476" width="80" height="50" as="geometry" />
        </mxCell>
        <mxCell id="7WhXe6qwy-NCzyhs4hZX-33" value="Metode Pembayaran" style="ellipse;whiteSpace=wrap;html=1;fontFamily=Times New Roman;" vertex="1" parent="1">
          <mxGeometry x="357.5" y="476" width="80" height="50" as="geometry" />
        </mxCell>
        <mxCell id="7WhXe6qwy-NCzyhs4hZX-34" value="" style="endArrow=none;html=1;rounded=0;hachureGap=4;fontFamily=Architects Daughter;fontSource=https%3A%2F%2Ffonts.googleapis.com%2Fcss%3Ffamily%3DArchitects%2BDaughter;exitX=1;exitY=0.5;exitDx=0;exitDy=0;entryX=0;entryY=0.5;entryDx=0;entryDy=0;" edge="1" parent="1" source="7WhXe6qwy-NCzyhs4hZX-1" target="7WhXe6qwy-NCzyhs4hZX-3">
          <mxGeometry width="50" height="50" relative="1" as="geometry">
            <mxPoint x="770" y="150" as="sourcePoint" />
            <mxPoint x="820" y="100" as="targetPoint" />
          </mxGeometry>
        </mxCell>
        <mxCell id="7WhXe6qwy-NCzyhs4hZX-35" value="" style="endArrow=none;html=1;rounded=0;hachureGap=4;fontFamily=Architects Daughter;fontSource=https%3A%2F%2Ffonts.googleapis.com%2Fcss%3Ffamily%3DArchitects%2BDaughter;exitX=0.75;exitY=0;exitDx=0;exitDy=0;entryX=0.5;entryY=1;entryDx=0;entryDy=0;" edge="1" parent="1" source="7WhXe6qwy-NCzyhs4hZX-1" target="7WhXe6qwy-NCzyhs4hZX-5">
          <mxGeometry width="50" height="50" relative="1" as="geometry">
            <mxPoint x="770" y="150" as="sourcePoint" />
            <mxPoint x="820" y="100" as="targetPoint" />
          </mxGeometry>
        </mxCell>
        <mxCell id="7WhXe6qwy-NCzyhs4hZX-36" value="" style="endArrow=none;html=1;rounded=0;hachureGap=4;fontFamily=Architects Daughter;fontSource=https%3A%2F%2Ffonts.googleapis.com%2Fcss%3Ffamily%3DArchitects%2BDaughter;exitX=0.25;exitY=0;exitDx=0;exitDy=0;entryX=0.5;entryY=1;entryDx=0;entryDy=0;" edge="1" parent="1" source="7WhXe6qwy-NCzyhs4hZX-1" target="7WhXe6qwy-NCzyhs4hZX-4">
          <mxGeometry width="50" height="50" relative="1" as="geometry">
            <mxPoint x="530" y="115" as="sourcePoint" />
            <mxPoint x="580" y="90" as="targetPoint" />
          </mxGeometry>
        </mxCell>
        <mxCell id="7WhXe6qwy-NCzyhs4hZX-37" value="" style="endArrow=none;html=1;rounded=0;hachureGap=4;fontFamily=Architects Daughter;fontSource=https%3A%2F%2Ffonts.googleapis.com%2Fcss%3Ffamily%3DArchitects%2BDaughter;exitX=0;exitY=0.5;exitDx=0;exitDy=0;entryX=1;entryY=0.5;entryDx=0;entryDy=0;" edge="1" parent="1" source="7WhXe6qwy-NCzyhs4hZX-1" target="7WhXe6qwy-NCzyhs4hZX-2">
          <mxGeometry width="50" height="50" relative="1" as="geometry">
            <mxPoint x="530" y="115" as="sourcePoint" />
            <mxPoint x="480" y="90" as="targetPoint" />
          </mxGeometry>
        </mxCell>
        <mxCell id="7WhXe6qwy-NCzyhs4hZX-38" value="" style="endArrow=none;html=1;rounded=0;hachureGap=4;fontFamily=Architects Daughter;fontSource=https%3A%2F%2Ffonts.googleapis.com%2Fcss%3Ffamily%3DArchitects%2BDaughter;exitX=0.5;exitY=0;exitDx=0;exitDy=0;entryX=0.5;entryY=1;entryDx=0;entryDy=0;" edge="1" parent="1" source="7WhXe6qwy-NCzyhs4hZX-6" target="7WhXe6qwy-NCzyhs4hZX-9">
          <mxGeometry width="50" height="50" relative="1" as="geometry">
            <mxPoint x="370" y="77.5" as="sourcePoint" />
            <mxPoint x="350" y="57.5" as="targetPoint" />
          </mxGeometry>
        </mxCell>
        <mxCell id="7WhXe6qwy-NCzyhs4hZX-39" value="" style="endArrow=none;html=1;rounded=0;hachureGap=4;fontFamily=Architects Daughter;fontSource=https%3A%2F%2Ffonts.googleapis.com%2Fcss%3Ffamily%3DArchitects%2BDaughter;exitX=0;exitY=0;exitDx=0;exitDy=0;entryX=0.5;entryY=1;entryDx=0;entryDy=0;" edge="1" parent="1" source="7WhXe6qwy-NCzyhs4hZX-6" target="7WhXe6qwy-NCzyhs4hZX-8">
          <mxGeometry width="50" height="50" relative="1" as="geometry">
            <mxPoint x="200" y="222.5" as="sourcePoint" />
            <mxPoint x="210" y="192.5" as="targetPoint" />
          </mxGeometry>
        </mxCell>
        <mxCell id="7WhXe6qwy-NCzyhs4hZX-40" value="" style="endArrow=none;html=1;rounded=0;hachureGap=4;fontFamily=Architects Daughter;fontSource=https%3A%2F%2Ffonts.googleapis.com%2Fcss%3Ffamily%3DArchitects%2BDaughter;exitX=0;exitY=0.5;exitDx=0;exitDy=0;entryX=1;entryY=0.5;entryDx=0;entryDy=0;" edge="1" parent="1" source="7WhXe6qwy-NCzyhs4hZX-6" target="7WhXe6qwy-NCzyhs4hZX-7">
          <mxGeometry width="50" height="50" relative="1" as="geometry">
            <mxPoint x="140" y="222.5" as="sourcePoint" />
            <mxPoint x="120" y="212.5" as="targetPoint" />
          </mxGeometry>
        </mxCell>
        <mxCell id="7WhXe6qwy-NCzyhs4hZX-41" value="" style="endArrow=none;html=1;rounded=0;hachureGap=4;fontFamily=Architects Daughter;fontSource=https%3A%2F%2Ffonts.googleapis.com%2Fcss%3Ffamily%3DArchitects%2BDaughter;exitX=0;exitY=1;exitDx=0;exitDy=0;entryX=0.5;entryY=0;entryDx=0;entryDy=0;" edge="1" parent="1" source="7WhXe6qwy-NCzyhs4hZX-6" target="7WhXe6qwy-NCzyhs4hZX-10">
          <mxGeometry width="50" height="50" relative="1" as="geometry">
            <mxPoint x="140" y="252.5" as="sourcePoint" />
            <mxPoint x="120" y="252.5" as="targetPoint" />
          </mxGeometry>
        </mxCell>
        <mxCell id="7WhXe6qwy-NCzyhs4hZX-46" value="" style="endArrow=none;html=1;rounded=0;hachureGap=4;fontFamily=Architects Daughter;fontSource=https%3A%2F%2Ffonts.googleapis.com%2Fcss%3Ffamily%3DArchitects%2BDaughter;exitX=0.5;exitY=0;exitDx=0;exitDy=0;entryX=0.5;entryY=1;entryDx=0;entryDy=0;" edge="1" parent="1" source="7WhXe6qwy-NCzyhs4hZX-26" target="7WhXe6qwy-NCzyhs4hZX-23">
          <mxGeometry width="50" height="50" relative="1" as="geometry">
            <mxPoint y="712" as="sourcePoint" />
            <mxPoint x="-20" y="722" as="targetPoint" />
          </mxGeometry>
        </mxCell>
        <mxCell id="7WhXe6qwy-NCzyhs4hZX-47" value="" style="endArrow=none;html=1;rounded=0;hachureGap=4;fontFamily=Architects Daughter;fontSource=https%3A%2F%2Ffonts.googleapis.com%2Fcss%3Ffamily%3DArchitects%2BDaughter;exitX=0.5;exitY=0;exitDx=0;exitDy=0;entryX=0.881;entryY=1.016;entryDx=0;entryDy=0;entryPerimeter=0;" edge="1" parent="1" source="7WhXe6qwy-NCzyhs4hZX-27" target="7WhXe6qwy-NCzyhs4hZX-23">
          <mxGeometry width="50" height="50" relative="1" as="geometry">
            <mxPoint x="520" y="732" as="sourcePoint" />
            <mxPoint x="520" y="712" as="targetPoint" />
          </mxGeometry>
        </mxCell>
        <mxCell id="7WhXe6qwy-NCzyhs4hZX-48" value="" style="endArrow=none;html=1;rounded=0;hachureGap=4;fontFamily=Architects Daughter;fontSource=https%3A%2F%2Ffonts.googleapis.com%2Fcss%3Ffamily%3DArchitects%2BDaughter;exitX=0;exitY=0.5;exitDx=0;exitDy=0;entryX=1;entryY=0.75;entryDx=0;entryDy=0;" edge="1" parent="1" source="7WhXe6qwy-NCzyhs4hZX-28" target="7WhXe6qwy-NCzyhs4hZX-23">
          <mxGeometry width="50" height="50" relative="1" as="geometry">
            <mxPoint x="610" y="722" as="sourcePoint" />
            <mxPoint x="580" y="712" as="targetPoint" />
          </mxGeometry>
        </mxCell>
        <mxCell id="7WhXe6qwy-NCzyhs4hZX-49" value="" style="endArrow=none;html=1;rounded=0;hachureGap=4;fontFamily=Architects Daughter;fontSource=https%3A%2F%2Ffonts.googleapis.com%2Fcss%3Ffamily%3DArchitects%2BDaughter;exitX=1;exitY=0.5;exitDx=0;exitDy=0;entryX=0;entryY=0.75;entryDx=0;entryDy=0;" edge="1" parent="1" source="7WhXe6qwy-NCzyhs4hZX-25" target="7WhXe6qwy-NCzyhs4hZX-23">
          <mxGeometry width="50" height="50" relative="1" as="geometry">
            <mxPoint x="600" y="677" as="sourcePoint" />
            <mxPoint x="580" y="682" as="targetPoint" />
          </mxGeometry>
        </mxCell>
        <mxCell id="7WhXe6qwy-NCzyhs4hZX-50" value="" style="endArrow=none;html=1;rounded=0;hachureGap=4;fontFamily=Architects Daughter;fontSource=https%3A%2F%2Ffonts.googleapis.com%2Fcss%3Ffamily%3DArchitects%2BDaughter;exitX=0.5;exitY=0;exitDx=0;exitDy=0;" edge="1" parent="1" source="7WhXe6qwy-NCzyhs4hZX-24" target="7WhXe6qwy-NCzyhs4hZX-23">
          <mxGeometry width="50" height="50" relative="1" as="geometry">
            <mxPoint x="610" y="647" as="sourcePoint" />
            <mxPoint x="580" y="652" as="targetPoint" />
          </mxGeometry>
        </mxCell>
        <mxCell id="7WhXe6qwy-NCzyhs4hZX-51" value="" style="endArrow=none;html=1;rounded=0;hachureGap=4;fontFamily=Architects Daughter;fontSource=https%3A%2F%2Ffonts.googleapis.com%2Fcss%3Ffamily%3DArchitects%2BDaughter;exitX=1;exitY=1;exitDx=0;exitDy=0;entryX=0;entryY=0.5;entryDx=0;entryDy=0;" edge="1" parent="1" source="7WhXe6qwy-NCzyhs4hZX-29" target="7WhXe6qwy-NCzyhs4hZX-32">
          <mxGeometry width="50" height="50" relative="1" as="geometry">
            <mxPoint x="757.5" y="342" as="sourcePoint" />
            <mxPoint x="757.5" y="322" as="targetPoint" />
          </mxGeometry>
        </mxCell>
        <mxCell id="7WhXe6qwy-NCzyhs4hZX-52" value="" style="endArrow=none;html=1;rounded=0;hachureGap=4;fontFamily=Architects Daughter;fontSource=https%3A%2F%2Ffonts.googleapis.com%2Fcss%3Ffamily%3DArchitects%2BDaughter;exitX=0.75;exitY=1;exitDx=0;exitDy=0;" edge="1" parent="1" source="7WhXe6qwy-NCzyhs4hZX-29" target="7WhXe6qwy-NCzyhs4hZX-31">
          <mxGeometry width="50" height="50" relative="1" as="geometry">
            <mxPoint x="587.5" y="467" as="sourcePoint" />
            <mxPoint x="607.5" y="492" as="targetPoint" />
          </mxGeometry>
        </mxCell>
        <mxCell id="7WhXe6qwy-NCzyhs4hZX-53" value="" style="endArrow=none;html=1;rounded=0;hachureGap=4;fontFamily=Architects Daughter;fontSource=https%3A%2F%2Ffonts.googleapis.com%2Fcss%3Ffamily%3DArchitects%2BDaughter;exitX=0.25;exitY=1;exitDx=0;exitDy=0;entryX=0.5;entryY=0;entryDx=0;entryDy=0;" edge="1" parent="1" source="7WhXe6qwy-NCzyhs4hZX-29" target="7WhXe6qwy-NCzyhs4hZX-30">
          <mxGeometry width="50" height="50" relative="1" as="geometry">
            <mxPoint x="587.5" y="497" as="sourcePoint" />
            <mxPoint x="587.5" y="532" as="targetPoint" />
          </mxGeometry>
        </mxCell>
        <mxCell id="7WhXe6qwy-NCzyhs4hZX-54" value="" style="endArrow=none;html=1;rounded=0;hachureGap=4;fontFamily=Architects Daughter;fontSource=https%3A%2F%2Ffonts.googleapis.com%2Fcss%3Ffamily%3DArchitects%2BDaughter;exitX=0;exitY=1;exitDx=0;exitDy=0;entryX=1;entryY=0.5;entryDx=0;entryDy=0;" edge="1" parent="1" source="7WhXe6qwy-NCzyhs4hZX-29" target="7WhXe6qwy-NCzyhs4hZX-33">
          <mxGeometry width="50" height="50" relative="1" as="geometry">
            <mxPoint x="557.5" y="497" as="sourcePoint" />
            <mxPoint x="575.5" y="533" as="targetPoint" />
          </mxGeometry>
        </mxCell>
        <mxCell id="7WhXe6qwy-NCzyhs4hZX-55" value="" style="endArrow=none;html=1;rounded=0;hachureGap=4;fontFamily=Architects Daughter;fontSource=https%3A%2F%2Ffonts.googleapis.com%2Fcss%3Ffamily%3DArchitects%2BDaughter;entryX=0;entryY=0.5;entryDx=0;entryDy=0;exitX=1;exitY=0.5;exitDx=0;exitDy=0;" edge="1" parent="1" source="7WhXe6qwy-NCzyhs4hZX-11" target="7WhXe6qwy-NCzyhs4hZX-17">
          <mxGeometry width="50" height="50" relative="1" as="geometry">
            <mxPoint x="910" y="230" as="sourcePoint" />
            <mxPoint x="850" y="450" as="targetPoint" />
          </mxGeometry>
        </mxCell>
        <mxCell id="7WhXe6qwy-NCzyhs4hZX-56" value="" style="endArrow=none;html=1;rounded=0;hachureGap=4;fontFamily=Architects Daughter;fontSource=https%3A%2F%2Ffonts.googleapis.com%2Fcss%3Ffamily%3DArchitects%2BDaughter;exitX=0.75;exitY=1;exitDx=0;exitDy=0;entryX=0.5;entryY=0;entryDx=0;entryDy=0;" edge="1" parent="1" source="7WhXe6qwy-NCzyhs4hZX-11" target="7WhXe6qwy-NCzyhs4hZX-16">
          <mxGeometry width="50" height="50" relative="1" as="geometry">
            <mxPoint x="820" y="270" as="sourcePoint" />
            <mxPoint x="800" y="290" as="targetPoint" />
          </mxGeometry>
        </mxCell>
        <mxCell id="7WhXe6qwy-NCzyhs4hZX-57" value="" style="endArrow=none;html=1;rounded=0;hachureGap=4;fontFamily=Architects Daughter;fontSource=https%3A%2F%2Ffonts.googleapis.com%2Fcss%3Ffamily%3DArchitects%2BDaughter;exitX=1;exitY=1;exitDx=0;exitDy=0;" edge="1" parent="1" source="7WhXe6qwy-NCzyhs4hZX-11" target="7WhXe6qwy-NCzyhs4hZX-15">
          <mxGeometry width="50" height="50" relative="1" as="geometry">
            <mxPoint x="880" y="270" as="sourcePoint" />
            <mxPoint x="900" y="290" as="targetPoint" />
          </mxGeometry>
        </mxCell>
        <mxCell id="7WhXe6qwy-NCzyhs4hZX-58" value="" style="endArrow=none;html=1;rounded=0;hachureGap=4;fontFamily=Architects Daughter;fontSource=https%3A%2F%2Ffonts.googleapis.com%2Fcss%3Ffamily%3DArchitects%2BDaughter;exitX=0.641;exitY=0.017;exitDx=0;exitDy=0;entryX=0.5;entryY=1;entryDx=0;entryDy=0;exitPerimeter=0;" edge="1" parent="1" source="7WhXe6qwy-NCzyhs4hZX-11" target="7WhXe6qwy-NCzyhs4hZX-14">
          <mxGeometry width="50" height="50" relative="1" as="geometry">
            <mxPoint x="910" y="255" as="sourcePoint" />
            <mxPoint x="942" y="262" as="targetPoint" />
          </mxGeometry>
        </mxCell>
        <mxCell id="7WhXe6qwy-NCzyhs4hZX-59" value="" style="endArrow=none;html=1;rounded=0;hachureGap=4;fontFamily=Architects Daughter;fontSource=https%3A%2F%2Ffonts.googleapis.com%2Fcss%3Ffamily%3DArchitects%2BDaughter;exitX=0.75;exitY=0;exitDx=0;exitDy=0;entryX=0;entryY=0.5;entryDx=0;entryDy=0;" edge="1" parent="1" source="7WhXe6qwy-NCzyhs4hZX-11" target="7WhXe6qwy-NCzyhs4hZX-13">
          <mxGeometry width="50" height="50" relative="1" as="geometry">
            <mxPoint x="910" y="225" as="sourcePoint" />
            <mxPoint x="940" y="205" as="targetPoint" />
          </mxGeometry>
        </mxCell>
        <mxCell id="7WhXe6qwy-NCzyhs4hZX-60" value="" style="endArrow=none;html=1;rounded=0;hachureGap=4;fontFamily=Architects Daughter;fontSource=https%3A%2F%2Ffonts.googleapis.com%2Fcss%3Ffamily%3DArchitects%2BDaughter;exitX=0.5;exitY=1;exitDx=0;exitDy=0;entryX=0.5;entryY=0;entryDx=0;entryDy=0;" edge="1" parent="1" source="7WhXe6qwy-NCzyhs4hZX-12" target="7WhXe6qwy-NCzyhs4hZX-11">
          <mxGeometry width="50" height="50" relative="1" as="geometry">
            <mxPoint x="880" y="210" as="sourcePoint" />
            <mxPoint x="900" y="190" as="targetPoint" />
          </mxGeometry>
        </mxCell>
        <mxCell id="7WhXe6qwy-NCzyhs4hZX-61" value="Melakukan" style="rhombus;whiteSpace=wrap;html=1;fontFamily=Times New Roman;" vertex="1" parent="1">
          <mxGeometry x="335" y="190" width="125" height="50" as="geometry" />
        </mxCell>
        <mxCell id="7WhXe6qwy-NCzyhs4hZX-62" value="" style="endArrow=none;html=1;rounded=0;hachureGap=4;fontFamily=Architects Daughter;fontSource=https%3A%2F%2Ffonts.googleapis.com%2Fcss%3Ffamily%3DArchitects%2BDaughter;exitX=1;exitY=0.5;exitDx=0;exitDy=0;entryX=0.25;entryY=1;entryDx=0;entryDy=0;" edge="1" parent="1" source="7WhXe6qwy-NCzyhs4hZX-61" target="7WhXe6qwy-NCzyhs4hZX-1">
          <mxGeometry width="50" height="50" relative="1" as="geometry">
            <mxPoint x="310" y="289" as="sourcePoint" />
            <mxPoint x="320" y="259" as="targetPoint" />
          </mxGeometry>
        </mxCell>
        <mxCell id="7WhXe6qwy-NCzyhs4hZX-63" value="" style="endArrow=none;html=1;rounded=0;hachureGap=4;fontFamily=Architects Daughter;fontSource=https%3A%2F%2Ffonts.googleapis.com%2Fcss%3Ffamily%3DArchitects%2BDaughter;exitX=1;exitY=0.5;exitDx=0;exitDy=0;entryX=0;entryY=0.5;entryDx=0;entryDy=0;" edge="1" parent="1" source="7WhXe6qwy-NCzyhs4hZX-6" target="7WhXe6qwy-NCzyhs4hZX-61">
          <mxGeometry width="50" height="50" relative="1" as="geometry">
            <mxPoint x="320" y="215" as="sourcePoint" />
            <mxPoint x="330" y="220" as="targetPoint" />
          </mxGeometry>
        </mxCell>
        <mxCell id="7WhXe6qwy-NCzyhs4hZX-64" value="Melakukan" style="rhombus;whiteSpace=wrap;html=1;fontFamily=Times New Roman;" vertex="1" parent="1">
          <mxGeometry x="580" y="182.5" width="125" height="50" as="geometry" />
        </mxCell>
        <mxCell id="7WhXe6qwy-NCzyhs4hZX-65" value="" style="endArrow=none;html=1;rounded=0;hachureGap=4;fontFamily=Architects Daughter;fontSource=https%3A%2F%2Ffonts.googleapis.com%2Fcss%3Ffamily%3DArchitects%2BDaughter;exitX=0;exitY=0.5;exitDx=0;exitDy=0;entryX=1;entryY=0.5;entryDx=0;entryDy=0;" edge="1" parent="1" source="7WhXe6qwy-NCzyhs4hZX-11" target="7WhXe6qwy-NCzyhs4hZX-64">
          <mxGeometry width="50" height="50" relative="1" as="geometry">
            <mxPoint x="588" y="262.5" as="sourcePoint" />
            <mxPoint x="560" y="167.5" as="targetPoint" />
          </mxGeometry>
        </mxCell>
        <mxCell id="7WhXe6qwy-NCzyhs4hZX-66" value="" style="endArrow=none;html=1;rounded=0;hachureGap=4;fontFamily=Architects Daughter;fontSource=https%3A%2F%2Ffonts.googleapis.com%2Fcss%3Ffamily%3DArchitects%2BDaughter;exitX=0;exitY=0.5;exitDx=0;exitDy=0;entryX=0.75;entryY=1;entryDx=0;entryDy=0;" edge="1" parent="1" source="7WhXe6qwy-NCzyhs4hZX-64" target="7WhXe6qwy-NCzyhs4hZX-1">
          <mxGeometry width="50" height="50" relative="1" as="geometry">
            <mxPoint x="453" y="219" as="sourcePoint" />
            <mxPoint x="510" y="174" as="targetPoint" />
          </mxGeometry>
        </mxCell>
        <mxCell id="7WhXe6qwy-NCzyhs4hZX-67" value="Melibatkan" style="rhombus;whiteSpace=wrap;html=1;fontFamily=Times New Roman;" vertex="1" parent="1">
          <mxGeometry x="127.5" y="461" width="125" height="50" as="geometry" />
        </mxCell>
        <mxCell id="7WhXe6qwy-NCzyhs4hZX-72" value="" style="endArrow=none;html=1;rounded=0;hachureGap=4;fontFamily=Architects Daughter;fontSource=https%3A%2F%2Ffonts.googleapis.com%2Fcss%3Ffamily%3DArchitects%2BDaughter;exitX=0.5;exitY=0;exitDx=0;exitDy=0;entryX=0.5;entryY=1;entryDx=0;entryDy=0;" edge="1" parent="1" source="7WhXe6qwy-NCzyhs4hZX-23" target="7WhXe6qwy-NCzyhs4hZX-67">
          <mxGeometry width="50" height="50" relative="1" as="geometry">
            <mxPoint x="570" y="780" as="sourcePoint" />
            <mxPoint x="180" y="400" as="targetPoint" />
          </mxGeometry>
        </mxCell>
        <mxCell id="7WhXe6qwy-NCzyhs4hZX-73" value="Memiliki" style="rhombus;whiteSpace=wrap;html=1;fontFamily=Times New Roman;" vertex="1" parent="1">
          <mxGeometry x="378.75" y="321.5" width="125" height="50" as="geometry" />
        </mxCell>
        <mxCell id="7WhXe6qwy-NCzyhs4hZX-74" value="Memiliki" style="rhombus;whiteSpace=wrap;html=1;fontFamily=Times New Roman;" vertex="1" parent="1">
          <mxGeometry x="533.75" y="320" width="125" height="50" as="geometry" />
        </mxCell>
        <mxCell id="7WhXe6qwy-NCzyhs4hZX-75" value="" style="endArrow=none;html=1;rounded=0;hachureGap=4;fontFamily=Architects Daughter;fontSource=https%3A%2F%2Ffonts.googleapis.com%2Fcss%3Ffamily%3DArchitects%2BDaughter;exitX=1;exitY=0.5;exitDx=0;exitDy=0;entryX=0.5;entryY=0;entryDx=0;entryDy=0;" edge="1" parent="1" source="7WhXe6qwy-NCzyhs4hZX-6" target="7WhXe6qwy-NCzyhs4hZX-73">
          <mxGeometry width="50" height="50" relative="1" as="geometry">
            <mxPoint x="370" y="319" as="sourcePoint" />
            <mxPoint x="453" y="269" as="targetPoint" />
          </mxGeometry>
        </mxCell>
        <mxCell id="7WhXe6qwy-NCzyhs4hZX-76" value="" style="endArrow=none;html=1;rounded=0;hachureGap=4;fontFamily=Architects Daughter;fontSource=https%3A%2F%2Ffonts.googleapis.com%2Fcss%3Ffamily%3DArchitects%2BDaughter;exitX=0.5;exitY=1;exitDx=0;exitDy=0;entryX=0.5;entryY=0;entryDx=0;entryDy=0;" edge="1" parent="1" source="7WhXe6qwy-NCzyhs4hZX-73" target="7WhXe6qwy-NCzyhs4hZX-29">
          <mxGeometry width="50" height="50" relative="1" as="geometry">
            <mxPoint x="368.75" y="276.5" as="sourcePoint" />
            <mxPoint x="451.75" y="331.5" as="targetPoint" />
          </mxGeometry>
        </mxCell>
        <mxCell id="7WhXe6qwy-NCzyhs4hZX-77" value="" style="endArrow=none;html=1;rounded=0;hachureGap=4;fontFamily=Architects Daughter;fontSource=https%3A%2F%2Ffonts.googleapis.com%2Fcss%3Ffamily%3DArchitects%2BDaughter;exitX=0.5;exitY=1;exitDx=0;exitDy=0;entryX=0.5;entryY=0;entryDx=0;entryDy=0;" edge="1" parent="1" source="7WhXe6qwy-NCzyhs4hZX-74" target="7WhXe6qwy-NCzyhs4hZX-29">
          <mxGeometry width="50" height="50" relative="1" as="geometry">
            <mxPoint x="526.75" y="384.5" as="sourcePoint" />
            <mxPoint x="528.75" y="486.5" as="targetPoint" />
          </mxGeometry>
        </mxCell>
        <mxCell id="7WhXe6qwy-NCzyhs4hZX-78" value="" style="endArrow=none;html=1;rounded=0;hachureGap=4;fontFamily=Architects Daughter;fontSource=https%3A%2F%2Ffonts.googleapis.com%2Fcss%3Ffamily%3DArchitects%2BDaughter;exitX=0;exitY=0.5;exitDx=0;exitDy=0;entryX=0.5;entryY=0;entryDx=0;entryDy=0;" edge="1" parent="1" source="7WhXe6qwy-NCzyhs4hZX-11" target="7WhXe6qwy-NCzyhs4hZX-74">
          <mxGeometry width="50" height="50" relative="1" as="geometry">
            <mxPoint x="643" y="422.5" as="sourcePoint" />
            <mxPoint x="730" y="557.5" as="targetPoint" />
          </mxGeometry>
        </mxCell>
        <mxCell id="7WhXe6qwy-NCzyhs4hZX-79" value="Melibatkan" style="rhombus;whiteSpace=wrap;html=1;fontFamily=Times New Roman;" vertex="1" parent="1">
          <mxGeometry x="775" y="450" width="125" height="50" as="geometry" />
        </mxCell>
        <mxCell id="7WhXe6qwy-NCzyhs4hZX-81" value="" style="endArrow=none;html=1;rounded=0;hachureGap=4;fontFamily=Architects Daughter;fontSource=https%3A%2F%2Ffonts.googleapis.com%2Fcss%3Ffamily%3DArchitects%2BDaughter;entryX=0.5;entryY=1;entryDx=0;entryDy=0;exitX=0.5;exitY=0;exitDx=0;exitDy=0;" edge="1" parent="1" source="7WhXe6qwy-NCzyhs4hZX-23" target="7WhXe6qwy-NCzyhs4hZX-79">
          <mxGeometry width="50" height="50" relative="1" as="geometry">
            <mxPoint x="740" y="759.5" as="sourcePoint" />
            <mxPoint x="575" y="761.5" as="targetPoint" />
          </mxGeometry>
        </mxCell>
        <mxCell id="7WhXe6qwy-NCzyhs4hZX-83" value="" style="endArrow=none;html=1;rounded=0;hachureGap=4;fontFamily=Architects Daughter;fontSource=https%3A%2F%2Ffonts.googleapis.com%2Fcss%3Ffamily%3DArchitects%2BDaughter;exitX=0.5;exitY=1;exitDx=0;exitDy=0;entryX=0.5;entryY=0;entryDx=0;entryDy=0;" edge="1" parent="1" source="7WhXe6qwy-NCzyhs4hZX-6" target="7WhXe6qwy-NCzyhs4hZX-67">
          <mxGeometry width="50" height="50" relative="1" as="geometry">
            <mxPoint x="213" y="410" as="sourcePoint" />
            <mxPoint x="213" y="495" as="targetPoint" />
          </mxGeometry>
        </mxCell>
        <mxCell id="7WhXe6qwy-NCzyhs4hZX-84" value="" style="endArrow=none;html=1;rounded=0;hachureGap=4;fontFamily=Architects Daughter;fontSource=https%3A%2F%2Ffonts.googleapis.com%2Fcss%3Ffamily%3DArchitects%2BDaughter;entryX=0.5;entryY=1;entryDx=0;entryDy=0;" edge="1" parent="1" source="7WhXe6qwy-NCzyhs4hZX-79" target="7WhXe6qwy-NCzyhs4hZX-11">
          <mxGeometry width="50" height="50" relative="1" as="geometry">
            <mxPoint x="810" y="546" as="sourcePoint" />
            <mxPoint x="850" y="420" as="targetPoint" />
          </mxGeometry>
        </mxCell>
        <mxCell id="7WhXe6qwy-NCzyhs4hZX-85" value="&lt;font face=&quot;Times New Roman&quot;&gt;1&lt;/font&gt;" style="text;html=1;align=center;verticalAlign=middle;whiteSpace=wrap;rounded=0;fontFamily=Architects Daughter;fontSource=https%3A%2F%2Ffonts.googleapis.com%2Fcss%3Ffamily%3DArchitects%2BDaughter;" vertex="1" parent="1">
          <mxGeometry x="430" y="172.5" width="60" height="30" as="geometry" />
        </mxCell>
        <mxCell id="7WhXe6qwy-NCzyhs4hZX-86" value="&lt;font face=&quot;Times New Roman&quot;&gt;1&lt;/font&gt;" style="text;html=1;align=center;verticalAlign=middle;whiteSpace=wrap;rounded=0;fontFamily=Architects Daughter;fontSource=https%3A%2F%2Ffonts.googleapis.com%2Fcss%3Ffamily%3DArchitects%2BDaughter;" vertex="1" parent="1">
          <mxGeometry x="547.5" y="172.5" width="60" height="30" as="geometry" />
        </mxCell>
        <mxCell id="7WhXe6qwy-NCzyhs4hZX-87" value="&lt;font face=&quot;Times New Roman&quot;&gt;N&lt;/font&gt;" style="text;html=1;align=center;verticalAlign=middle;whiteSpace=wrap;rounded=0;fontFamily=Architects Daughter;fontSource=https%3A%2F%2Ffonts.googleapis.com%2Fcss%3Ffamily%3DArchitects%2BDaughter;" vertex="1" parent="1">
          <mxGeometry x="547.5" y="390" width="60" height="30" as="geometry" />
        </mxCell>
        <mxCell id="7WhXe6qwy-NCzyhs4hZX-88" style="edgeStyle=orthogonalEdgeStyle;rounded=0;sketch=1;hachureGap=4;jiggle=2;curveFitting=1;orthogonalLoop=1;jettySize=auto;html=1;exitX=0.5;exitY=1;exitDx=0;exitDy=0;fontFamily=Architects Daughter;fontSource=https%3A%2F%2Ffonts.googleapis.com%2Fcss%3Ffamily%3DArchitects%2BDaughter;" edge="1" parent="1" source="7WhXe6qwy-NCzyhs4hZX-26" target="7WhXe6qwy-NCzyhs4hZX-26">
          <mxGeometry relative="1" as="geometry" />
        </mxCell>
        <mxCell id="7WhXe6qwy-NCzyhs4hZX-89" value="&lt;font face=&quot;Times New Roman&quot;&gt;1&lt;/font&gt;" style="text;html=1;align=center;verticalAlign=middle;whiteSpace=wrap;rounded=0;fontFamily=Architects Daughter;fontSource=https%3A%2F%2Ffonts.googleapis.com%2Fcss%3Ffamily%3DArchitects%2BDaughter;" vertex="1" parent="1">
          <mxGeometry x="290" y="282.5" width="60" height="30" as="geometry" />
        </mxCell>
        <mxCell id="7WhXe6qwy-NCzyhs4hZX-91" value="&lt;font face=&quot;Times New Roman&quot;&gt;1&lt;/font&gt;" style="text;html=1;align=center;verticalAlign=middle;whiteSpace=wrap;rounded=0;fontFamily=Architects Daughter;fontSource=https%3A%2F%2Ffonts.googleapis.com%2Fcss%3Ffamily%3DArchitects%2BDaughter;" vertex="1" parent="1">
          <mxGeometry x="658.75" y="282.5" width="60" height="30" as="geometry" />
        </mxCell>
        <mxCell id="7WhXe6qwy-NCzyhs4hZX-93" value="&lt;font face=&quot;Times New Roman&quot;&gt;N&lt;/font&gt;" style="text;html=1;align=center;verticalAlign=middle;whiteSpace=wrap;rounded=0;fontFamily=Architects Daughter;fontSource=https%3A%2F%2Ffonts.googleapis.com%2Fcss%3Ffamily%3DArchitects%2BDaughter;" vertex="1" parent="1">
          <mxGeometry x="415" y="390" width="60" height="30" as="geometry" />
        </mxCell>
        <mxCell id="7WhXe6qwy-NCzyhs4hZX-94" value="&lt;font face=&quot;Times New Roman&quot;&gt;N&lt;/font&gt;" style="text;html=1;align=center;verticalAlign=middle;whiteSpace=wrap;rounded=0;fontFamily=Architects Daughter;fontSource=https%3A%2F%2Ffonts.googleapis.com%2Fcss%3Ffamily%3DArchitects%2BDaughter;" vertex="1" parent="1">
          <mxGeometry x="180" y="350" width="60" height="30" as="geometry" />
        </mxCell>
        <mxCell id="7WhXe6qwy-NCzyhs4hZX-95" value="&lt;font face=&quot;Times New Roman&quot;&gt;N&lt;/font&gt;" style="text;html=1;align=center;verticalAlign=middle;whiteSpace=wrap;rounded=0;fontFamily=Architects Daughter;fontSource=https%3A%2F%2Ffonts.googleapis.com%2Fcss%3Ffamily%3DArchitects%2BDaughter;" vertex="1" parent="1">
          <mxGeometry x="790" y="350" width="60" height="30" as="geometry" />
        </mxCell>
        <mxCell id="7WhXe6qwy-NCzyhs4hZX-97" value="&lt;font face=&quot;Times New Roman&quot;&gt;1&lt;/font&gt;" style="text;html=1;align=center;verticalAlign=middle;whiteSpace=wrap;rounded=0;fontFamily=Architects Daughter;fontSource=https%3A%2F%2Ffonts.googleapis.com%2Fcss%3Ffamily%3DArchitects%2BDaughter;" vertex="1" parent="1">
          <mxGeometry x="650" y="580" width="60" height="30" as="geometry" />
        </mxCell>
        <mxCell id="7WhXe6qwy-NCzyhs4hZX-98" value="&lt;font face=&quot;Times New Roman&quot;&gt;M&lt;/font&gt;" style="text;html=1;align=center;verticalAlign=middle;whiteSpace=wrap;rounded=0;fontFamily=Architects Daughter;fontSource=https%3A%2F%2Ffonts.googleapis.com%2Fcss%3Ffamily%3DArchitects%2BDaughter;" vertex="1" parent="1">
          <mxGeometry x="280" y="580" width="60" height="30" as="geometry" />
        </mxCell>
        <mxCell id="7WhXe6qwy-NCzyhs4hZX-101" value="&lt;font face=&quot;Times New Roman&quot;&gt;N&lt;/font&gt;" style="text;html=1;align=center;verticalAlign=middle;whiteSpace=wrap;rounded=0;fontFamily=Architects Daughter;fontSource=https%3A%2F%2Ffonts.googleapis.com%2Fcss%3Ffamily%3DArchitects%2BDaughter;" vertex="1" parent="1">
          <mxGeometry x="710" y="187.5" width="60" height="30" as="geometry" />
        </mxCell>
        <mxCell id="7WhXe6qwy-NCzyhs4hZX-103" value="&lt;font face=&quot;Times New Roman&quot;&gt;N&lt;/font&gt;" style="text;html=1;align=center;verticalAlign=middle;whiteSpace=wrap;rounded=0;fontFamily=Architects Daughter;fontSource=https%3A%2F%2Ffonts.googleapis.com%2Fcss%3Ffamily%3DArchitects%2BDaughter;" vertex="1" parent="1">
          <mxGeometry x="257" y="200" width="60" height="30" as="geometry" />
        </mxCell>
      </root>
    </mxGraphModel>
  </diagram>
  <diagram id="SfGFIagtlO_zp8vDBxJL" name="Page-2">
    <mxGraphModel dx="-689" dy="1277" grid="1" gridSize="10" guides="1" tooltips="1" connect="1" arrows="1" fold="1" page="1" pageScale="1" pageWidth="1100" pageHeight="850" math="0" shadow="0">
      <root>
        <mxCell id="0" />
        <mxCell id="1" parent="0" />
        <mxCell id="uez7i5JUk1GxDRyKmDfl-1" value="&lt;font face=&quot;Times New Roman&quot;&gt;Pasien&lt;/font&gt;" style="rounded=0;whiteSpace=wrap;html=1;hachureGap=4;fontFamily=Architects Daughter;fontSource=https%3A%2F%2Ffonts.googleapis.com%2Fcss%3Ffamily%3DArchitects%2BDaughter;" vertex="1" parent="1">
          <mxGeometry x="1215" y="137" width="100" height="42.5" as="geometry" />
        </mxCell>
        <mxCell id="uez7i5JUk1GxDRyKmDfl-2" value="&lt;u&gt;ID Pasien&lt;/u&gt;" style="ellipse;whiteSpace=wrap;html=1;fontFamily=Times New Roman;" vertex="1" parent="1">
          <mxGeometry x="1235" y="70" width="60" height="40" as="geometry" />
        </mxCell>
        <mxCell id="uez7i5JUk1GxDRyKmDfl-3" value="Nama" style="ellipse;whiteSpace=wrap;html=1;fontFamily=Times New Roman;" vertex="1" parent="1">
          <mxGeometry x="1120" y="139.5" width="60" height="40" as="geometry" />
        </mxCell>
        <mxCell id="uez7i5JUk1GxDRyKmDfl-4" value="Umur" style="ellipse;whiteSpace=wrap;html=1;fontFamily=Times New Roman;" vertex="1" parent="1">
          <mxGeometry x="1150" y="192.5" width="60" height="40" as="geometry" />
        </mxCell>
        <mxCell id="uez7i5JUk1GxDRyKmDfl-5" value="Alamat" style="ellipse;whiteSpace=wrap;html=1;fontFamily=Times New Roman;" vertex="1" parent="1">
          <mxGeometry x="1315" y="88.75" width="60" height="40" as="geometry" />
        </mxCell>
        <mxCell id="uez7i5JUk1GxDRyKmDfl-6" value="Jenis Kelamin" style="ellipse;whiteSpace=wrap;html=1;fontFamily=Times New Roman;" vertex="1" parent="1">
          <mxGeometry x="1235" y="207" width="60" height="40" as="geometry" />
        </mxCell>
        <mxCell id="uez7i5JUk1GxDRyKmDfl-7" value="Alergi" style="ellipse;whiteSpace=wrap;html=1;fontFamily=Times New Roman;" vertex="1" parent="1">
          <mxGeometry x="1150" y="88.75" width="60" height="40" as="geometry" />
        </mxCell>
        <mxCell id="uez7i5JUk1GxDRyKmDfl-8" value="&lt;font face=&quot;Times New Roman&quot;&gt;Rekam Medis&lt;/font&gt;" style="rounded=0;whiteSpace=wrap;html=1;hachureGap=4;fontFamily=Architects Daughter;fontSource=https%3A%2F%2Ffonts.googleapis.com%2Fcss%3Ffamily%3DArchitects%2BDaughter;" vertex="1" parent="1">
          <mxGeometry x="1655" y="102.5" width="120" height="60" as="geometry" />
        </mxCell>
        <mxCell id="uez7i5JUk1GxDRyKmDfl-9" value="Pengobatan" style="ellipse;whiteSpace=wrap;html=1;fontFamily=Times New Roman;" vertex="1" parent="1">
          <mxGeometry x="1735" y="8.75" width="60" height="40" as="geometry" />
        </mxCell>
        <mxCell id="uez7i5JUk1GxDRyKmDfl-10" value="Anamnesis Pemeriksaan" style="ellipse;whiteSpace=wrap;html=1;fontFamily=Times New Roman;" vertex="1" parent="1">
          <mxGeometry x="1625" y="8.75" width="70" height="40" as="geometry" />
        </mxCell>
        <mxCell id="uez7i5JUk1GxDRyKmDfl-11" value="Suhu" style="ellipse;whiteSpace=wrap;html=1;fontFamily=Times New Roman;" vertex="1" parent="1">
          <mxGeometry x="1725" y="178.75" width="60" height="40" as="geometry" />
        </mxCell>
        <mxCell id="uez7i5JUk1GxDRyKmDfl-12" value="Berat Badan" style="ellipse;whiteSpace=wrap;html=1;fontFamily=Times New Roman;" vertex="1" parent="1">
          <mxGeometry x="1585" y="62.5" width="60" height="40" as="geometry" />
        </mxCell>
        <mxCell id="uez7i5JUk1GxDRyKmDfl-13" value="Tensi" style="ellipse;whiteSpace=wrap;html=1;fontFamily=Times New Roman;" vertex="1" parent="1">
          <mxGeometry x="1785" y="62.5" width="60" height="40" as="geometry" />
        </mxCell>
        <mxCell id="uez7i5JUk1GxDRyKmDfl-14" value="Umur" style="ellipse;whiteSpace=wrap;html=1;fontFamily=Times New Roman;" vertex="1" parent="1">
          <mxGeometry x="1685" y="48.75" width="60" height="40" as="geometry" />
        </mxCell>
        <mxCell id="uez7i5JUk1GxDRyKmDfl-15" value="&lt;u&gt;ID Rekam Medis&lt;/u&gt;" style="ellipse;whiteSpace=wrap;html=1;fontFamily=Times New Roman;" vertex="1" parent="1">
          <mxGeometry x="1785" y="152.5" width="60" height="40" as="geometry" />
        </mxCell>
        <mxCell id="uez7i5JUk1GxDRyKmDfl-16" value="Tanggal Periksa" style="ellipse;whiteSpace=wrap;html=1;fontFamily=Times New Roman;" vertex="1" parent="1">
          <mxGeometry x="1645" y="179.5" width="60" height="40" as="geometry" />
        </mxCell>
        <mxCell id="uez7i5JUk1GxDRyKmDfl-17" value="ID Dokter" style="ellipse;whiteSpace=wrap;html=1;fontFamily=Times New Roman;" vertex="1" parent="1">
          <mxGeometry x="1585" y="152.5" width="60" height="40" as="geometry" />
        </mxCell>
        <mxCell id="uez7i5JUk1GxDRyKmDfl-19" value="&lt;font face=&quot;Times New Roman&quot;&gt;Rujukan&lt;/font&gt;" style="rounded=0;whiteSpace=wrap;html=1;hachureGap=4;fontFamily=Architects Daughter;fontSource=https%3A%2F%2Ffonts.googleapis.com%2Fcss%3Ffamily%3DArchitects%2BDaughter;" vertex="1" parent="1">
          <mxGeometry x="1880" y="307" width="100" height="50" as="geometry" />
        </mxCell>
        <mxCell id="uez7i5JUk1GxDRyKmDfl-20" value="Nama Pasien" style="ellipse;whiteSpace=wrap;html=1;fontFamily=Times New Roman;" vertex="1" parent="1">
          <mxGeometry x="1940" y="414.5" width="60" height="40" as="geometry" />
        </mxCell>
        <mxCell id="uez7i5JUk1GxDRyKmDfl-21" value="Diiagnosis Sementara" style="ellipse;whiteSpace=wrap;html=1;fontFamily=Times New Roman;" vertex="1" parent="1">
          <mxGeometry x="1820" y="257" width="60" height="40" as="geometry" />
        </mxCell>
        <mxCell id="uez7i5JUk1GxDRyKmDfl-22" value="Pemeriksaan Fisik" style="ellipse;whiteSpace=wrap;html=1;fontFamily=Times New Roman;" vertex="1" parent="1">
          <mxGeometry x="1860" y="414.5" width="60" height="40" as="geometry" />
        </mxCell>
        <mxCell id="uez7i5JUk1GxDRyKmDfl-23" value="Terapi" style="ellipse;whiteSpace=wrap;html=1;fontFamily=Times New Roman;" vertex="1" parent="1">
          <mxGeometry x="1900" y="257" width="60" height="40" as="geometry" />
        </mxCell>
        <mxCell id="uez7i5JUk1GxDRyKmDfl-24" value="Umur Pasien" style="ellipse;whiteSpace=wrap;html=1;fontFamily=Times New Roman;" vertex="1" parent="1">
          <mxGeometry x="1950" y="207" width="60" height="40" as="geometry" />
        </mxCell>
        <mxCell id="uez7i5JUk1GxDRyKmDfl-25" value="Alamat Pasien" style="ellipse;whiteSpace=wrap;html=1;fontFamily=Times New Roman;" vertex="1" parent="1">
          <mxGeometry x="1980" y="257" width="60" height="40" as="geometry" />
        </mxCell>
        <mxCell id="uez7i5JUk1GxDRyKmDfl-26" value="Tanggal Rujukan" style="ellipse;whiteSpace=wrap;html=1;fontFamily=Times New Roman;" vertex="1" parent="1">
          <mxGeometry x="1980" y="367" width="60" height="40" as="geometry" />
        </mxCell>
        <mxCell id="uez7i5JUk1GxDRyKmDfl-27" value="Tujuan Rujukan" style="ellipse;whiteSpace=wrap;html=1;fontFamily=Times New Roman;" vertex="1" parent="1">
          <mxGeometry x="1900" y="367" width="60" height="40" as="geometry" />
        </mxCell>
        <mxCell id="uez7i5JUk1GxDRyKmDfl-28" value="Anamnesis" style="ellipse;whiteSpace=wrap;html=1;fontFamily=Times New Roman;" vertex="1" parent="1">
          <mxGeometry x="1820" y="367" width="60" height="40" as="geometry" />
        </mxCell>
        <mxCell id="uez7i5JUk1GxDRyKmDfl-29" value="&lt;u&gt;ID Rujukan&lt;/u&gt;" style="ellipse;whiteSpace=wrap;html=1;fontFamily=Times New Roman;" vertex="1" parent="1">
          <mxGeometry x="1850" y="207" width="60" height="40" as="geometry" />
        </mxCell>
        <mxCell id="uez7i5JUk1GxDRyKmDfl-30" value="&lt;font face=&quot;Times New Roman&quot;&gt;Resep&lt;/font&gt;" style="rounded=0;whiteSpace=wrap;html=1;hachureGap=4;fontFamily=Architects Daughter;fontSource=https%3A%2F%2Ffonts.googleapis.com%2Fcss%3Ffamily%3DArchitects%2BDaughter;" vertex="1" parent="1">
          <mxGeometry x="1645" y="454.5" width="90" height="40" as="geometry" />
        </mxCell>
        <mxCell id="uez7i5JUk1GxDRyKmDfl-31" value="&lt;u&gt;ID Resep&lt;/u&gt;" style="ellipse;whiteSpace=wrap;html=1;fontFamily=Times New Roman;" vertex="1" parent="1">
          <mxGeometry x="1585" y="404.5" width="60" height="40" as="geometry" />
        </mxCell>
        <mxCell id="uez7i5JUk1GxDRyKmDfl-32" value="ID Dokter" style="ellipse;whiteSpace=wrap;html=1;fontFamily=Times New Roman;" vertex="1" parent="1">
          <mxGeometry x="1585" y="505" width="60" height="40" as="geometry" />
        </mxCell>
        <mxCell id="uez7i5JUk1GxDRyKmDfl-33" value="Dosis" style="ellipse;whiteSpace=wrap;html=1;fontFamily=Times New Roman;" vertex="1" parent="1">
          <mxGeometry x="1735" y="505" width="60" height="40" as="geometry" />
        </mxCell>
        <mxCell id="uez7i5JUk1GxDRyKmDfl-34" value="Tanggal Resep" style="ellipse;whiteSpace=wrap;html=1;fontFamily=Times New Roman;" vertex="1" parent="1">
          <mxGeometry x="1660" y="390" width="60" height="40" as="geometry" />
        </mxCell>
        <mxCell id="uez7i5JUk1GxDRyKmDfl-35" value="Nama Obat" style="ellipse;whiteSpace=wrap;html=1;fontFamily=Times New Roman;" vertex="1" parent="1">
          <mxGeometry x="1660" y="525" width="60" height="40" as="geometry" />
        </mxCell>
        <mxCell id="uez7i5JUk1GxDRyKmDfl-36" value="Nomor Resep" style="ellipse;whiteSpace=wrap;html=1;fontFamily=Times New Roman;" vertex="1" parent="1">
          <mxGeometry x="1735" y="404.5" width="60" height="40" as="geometry" />
        </mxCell>
        <mxCell id="uez7i5JUk1GxDRyKmDfl-37" value="&lt;font face=&quot;Times New Roman&quot;&gt;Rujukan Laboratorium&lt;/font&gt;" style="rounded=0;whiteSpace=wrap;html=1;hachureGap=4;fontFamily=Architects Daughter;fontSource=https%3A%2F%2Ffonts.googleapis.com%2Fcss%3Ffamily%3DArchitects%2BDaughter;" vertex="1" parent="1">
          <mxGeometry x="1870" y="610" width="120" height="55" as="geometry" />
        </mxCell>
        <mxCell id="uez7i5JUk1GxDRyKmDfl-38" value="&lt;u&gt;ID Rujukan Lab&lt;/u&gt;" style="ellipse;whiteSpace=wrap;html=1;fontFamily=Times New Roman;" vertex="1" parent="1">
          <mxGeometry x="1780" y="625" width="60" height="40" as="geometry" />
        </mxCell>
        <mxCell id="uez7i5JUk1GxDRyKmDfl-39" value="ID Dokter" style="ellipse;whiteSpace=wrap;html=1;fontFamily=Times New Roman;" vertex="1" parent="1">
          <mxGeometry x="2020" y="625" width="60" height="40" as="geometry" />
        </mxCell>
        <mxCell id="uez7i5JUk1GxDRyKmDfl-41" value="ID Pasien" style="ellipse;whiteSpace=wrap;html=1;fontFamily=Times New Roman;" vertex="1" parent="1">
          <mxGeometry x="1820" y="680" width="60" height="40" as="geometry" />
        </mxCell>
        <mxCell id="uez7i5JUk1GxDRyKmDfl-42" value="Tanggal Permintaan" style="ellipse;whiteSpace=wrap;html=1;fontFamily=Times New Roman;" vertex="1" parent="1">
          <mxGeometry x="1980" y="680" width="60" height="40" as="geometry" />
        </mxCell>
        <mxCell id="uez7i5JUk1GxDRyKmDfl-43" value="Jenis Tes Lab" style="ellipse;whiteSpace=wrap;html=1;fontFamily=Times New Roman;" vertex="1" parent="1">
          <mxGeometry x="1900" y="680" width="60" height="40" as="geometry" />
        </mxCell>
        <mxCell id="uez7i5JUk1GxDRyKmDfl-44" value="&lt;font face=&quot;Times New Roman&quot;&gt;Dokter&lt;/font&gt;" style="rounded=0;whiteSpace=wrap;html=1;hachureGap=4;fontFamily=Architects Daughter;fontSource=https%3A%2F%2Ffonts.googleapis.com%2Fcss%3Ffamily%3DArchitects%2BDaughter;" vertex="1" parent="1">
          <mxGeometry x="2315" y="452.5" width="90" height="40" as="geometry" />
        </mxCell>
        <mxCell id="uez7i5JUk1GxDRyKmDfl-45" value="Nama Dokter" style="ellipse;whiteSpace=wrap;html=1;fontFamily=Times New Roman;" vertex="1" parent="1">
          <mxGeometry x="2380" y="510" width="60" height="40" as="geometry" />
        </mxCell>
        <mxCell id="uez7i5JUk1GxDRyKmDfl-46" value="&lt;u&gt;ID Dokter&lt;/u&gt;" style="ellipse;whiteSpace=wrap;html=1;fontFamily=Times New Roman;" vertex="1" parent="1">
          <mxGeometry x="2380" y="400" width="60" height="40" as="geometry" />
        </mxCell>
        <mxCell id="uez7i5JUk1GxDRyKmDfl-48" value="Spesialisasi" style="ellipse;whiteSpace=wrap;html=1;fontFamily=Times New Roman;" vertex="1" parent="1">
          <mxGeometry x="2430" y="452.5" width="60" height="40" as="geometry" />
        </mxCell>
        <mxCell id="Vz5odyzkAsPH56J9xHiT-1" value="Memiliki" style="rhombus;whiteSpace=wrap;html=1;fontFamily=Times New Roman;" vertex="1" parent="1">
          <mxGeometry x="1420" y="110" width="125" height="50" as="geometry" />
        </mxCell>
        <mxCell id="Vz5odyzkAsPH56J9xHiT-2" value="Memiliki" style="rhombus;whiteSpace=wrap;html=1;fontFamily=Times New Roman;" vertex="1" parent="1">
          <mxGeometry x="1420" y="307" width="125" height="50" as="geometry" />
        </mxCell>
        <mxCell id="Vz5odyzkAsPH56J9xHiT-4" value="" style="endArrow=none;html=1;rounded=0;hachureGap=4;fontFamily=Architects Daughter;fontSource=https%3A%2F%2Ffonts.googleapis.com%2Fcss%3Ffamily%3DArchitects%2BDaughter;exitX=1;exitY=0.5;exitDx=0;exitDy=0;entryX=0;entryY=0.5;entryDx=0;entryDy=0;" edge="1" parent="1" source="uez7i5JUk1GxDRyKmDfl-1" target="Vz5odyzkAsPH56J9xHiT-1">
          <mxGeometry width="50" height="50" relative="1" as="geometry">
            <mxPoint x="1355" y="240" as="sourcePoint" />
            <mxPoint x="1405" y="190" as="targetPoint" />
          </mxGeometry>
        </mxCell>
        <mxCell id="Vz5odyzkAsPH56J9xHiT-5" value="" style="endArrow=none;html=1;rounded=0;hachureGap=4;fontFamily=Architects Daughter;fontSource=https%3A%2F%2Ffonts.googleapis.com%2Fcss%3Ffamily%3DArchitects%2BDaughter;exitX=1;exitY=0.5;exitDx=0;exitDy=0;entryX=0;entryY=0.5;entryDx=0;entryDy=0;" edge="1" parent="1" source="Vz5odyzkAsPH56J9xHiT-1" target="uez7i5JUk1GxDRyKmDfl-8">
          <mxGeometry width="50" height="50" relative="1" as="geometry">
            <mxPoint x="1510" y="133.75" as="sourcePoint" />
            <mxPoint x="1395" y="143.75" as="targetPoint" />
          </mxGeometry>
        </mxCell>
        <mxCell id="Vz5odyzkAsPH56J9xHiT-6" value="" style="endArrow=none;html=1;rounded=0;hachureGap=4;fontFamily=Architects Daughter;fontSource=https%3A%2F%2Ffonts.googleapis.com%2Fcss%3Ffamily%3DArchitects%2BDaughter;exitX=1;exitY=0.5;exitDx=0;exitDy=0;entryX=0;entryY=0.5;entryDx=0;entryDy=0;" edge="1" parent="1" source="uez7i5JUk1GxDRyKmDfl-1" target="Vz5odyzkAsPH56J9xHiT-2">
          <mxGeometry width="50" height="50" relative="1" as="geometry">
            <mxPoint x="1600" y="175" as="sourcePoint" />
            <mxPoint x="1745" y="174" as="targetPoint" />
          </mxGeometry>
        </mxCell>
        <mxCell id="Vz5odyzkAsPH56J9xHiT-8" value="" style="endArrow=none;html=1;rounded=0;hachureGap=4;fontFamily=Architects Daughter;fontSource=https%3A%2F%2Ffonts.googleapis.com%2Fcss%3Ffamily%3DArchitects%2BDaughter;exitX=1;exitY=0.5;exitDx=0;exitDy=0;entryX=0;entryY=0.5;entryDx=0;entryDy=0;" edge="1" parent="1" source="Vz5odyzkAsPH56J9xHiT-2" target="uez7i5JUk1GxDRyKmDfl-19">
          <mxGeometry width="50" height="50" relative="1" as="geometry">
            <mxPoint x="1280" y="138" as="sourcePoint" />
            <mxPoint x="1430" y="295" as="targetPoint" />
          </mxGeometry>
        </mxCell>
        <mxCell id="Vz5odyzkAsPH56J9xHiT-9" value="" style="endArrow=none;html=1;rounded=0;hachureGap=4;fontFamily=Architects Daughter;fontSource=https%3A%2F%2Ffonts.googleapis.com%2Fcss%3Ffamily%3DArchitects%2BDaughter;exitX=1;exitY=0.5;exitDx=0;exitDy=0;entryX=0;entryY=0.5;entryDx=0;entryDy=0;" edge="1" parent="1" source="uez7i5JUk1GxDRyKmDfl-1" target="Vz5odyzkAsPH56J9xHiT-10">
          <mxGeometry width="50" height="50" relative="1" as="geometry">
            <mxPoint x="1325" y="168" as="sourcePoint" />
            <mxPoint x="1435" y="420" as="targetPoint" />
          </mxGeometry>
        </mxCell>
        <mxCell id="Vz5odyzkAsPH56J9xHiT-10" value="Memiliki" style="rhombus;whiteSpace=wrap;html=1;fontFamily=Times New Roman;" vertex="1" parent="1">
          <mxGeometry x="1420" y="452.5" width="125" height="50" as="geometry" />
        </mxCell>
        <mxCell id="Vz5odyzkAsPH56J9xHiT-11" value="" style="endArrow=none;html=1;rounded=0;hachureGap=4;fontFamily=Architects Daughter;fontSource=https%3A%2F%2Ffonts.googleapis.com%2Fcss%3Ffamily%3DArchitects%2BDaughter;exitX=1;exitY=0.5;exitDx=0;exitDy=0;entryX=0;entryY=0.5;entryDx=0;entryDy=0;" edge="1" parent="1" source="Vz5odyzkAsPH56J9xHiT-10" target="uez7i5JUk1GxDRyKmDfl-30">
          <mxGeometry width="50" height="50" relative="1" as="geometry">
            <mxPoint x="1280" y="138" as="sourcePoint" />
            <mxPoint x="1430" y="306" as="targetPoint" />
          </mxGeometry>
        </mxCell>
        <mxCell id="Vz5odyzkAsPH56J9xHiT-12" value="Memiliki" style="rhombus;whiteSpace=wrap;html=1;fontFamily=Times New Roman;" vertex="1" parent="1">
          <mxGeometry x="1420" y="550" width="125" height="50" as="geometry" />
        </mxCell>
        <mxCell id="Vz5odyzkAsPH56J9xHiT-13" value="" style="endArrow=none;html=1;rounded=0;hachureGap=4;fontFamily=Architects Daughter;fontSource=https%3A%2F%2Ffonts.googleapis.com%2Fcss%3Ffamily%3DArchitects%2BDaughter;exitX=1;exitY=0.5;exitDx=0;exitDy=0;entryX=0;entryY=0.5;entryDx=0;entryDy=0;" edge="1" parent="1" source="uez7i5JUk1GxDRyKmDfl-1" target="Vz5odyzkAsPH56J9xHiT-12">
          <mxGeometry width="50" height="50" relative="1" as="geometry">
            <mxPoint x="1325" y="168" as="sourcePoint" />
            <mxPoint x="1475" y="336" as="targetPoint" />
          </mxGeometry>
        </mxCell>
        <mxCell id="Vz5odyzkAsPH56J9xHiT-14" value="" style="endArrow=none;html=1;rounded=0;hachureGap=4;fontFamily=Architects Daughter;fontSource=https%3A%2F%2Ffonts.googleapis.com%2Fcss%3Ffamily%3DArchitects%2BDaughter;exitX=1;exitY=0.5;exitDx=0;exitDy=0;entryX=0.5;entryY=0;entryDx=0;entryDy=0;" edge="1" parent="1" source="Vz5odyzkAsPH56J9xHiT-12" target="uez7i5JUk1GxDRyKmDfl-37">
          <mxGeometry width="50" height="50" relative="1" as="geometry">
            <mxPoint x="1280" y="138" as="sourcePoint" />
            <mxPoint x="1430" y="385" as="targetPoint" />
          </mxGeometry>
        </mxCell>
        <mxCell id="Vz5odyzkAsPH56J9xHiT-15" value="Membuat" style="rhombus;whiteSpace=wrap;html=1;fontFamily=Times New Roman;" vertex="1" parent="1">
          <mxGeometry x="2100" y="110" width="125" height="50" as="geometry" />
        </mxCell>
        <mxCell id="Vz5odyzkAsPH56J9xHiT-17" value="Membuat" style="rhombus;whiteSpace=wrap;html=1;fontFamily=Times New Roman;" vertex="1" parent="1">
          <mxGeometry x="2100" y="307" width="125" height="50" as="geometry" />
        </mxCell>
        <mxCell id="Vz5odyzkAsPH56J9xHiT-18" value="Membuat" style="rhombus;whiteSpace=wrap;html=1;fontFamily=Times New Roman;" vertex="1" parent="1">
          <mxGeometry x="2110" y="449.5" width="125" height="50" as="geometry" />
        </mxCell>
        <mxCell id="Vz5odyzkAsPH56J9xHiT-19" value="membuat" style="rhombus;whiteSpace=wrap;html=1;fontFamily=Times New Roman;" vertex="1" parent="1">
          <mxGeometry x="2110" y="540" width="125" height="50" as="geometry" />
        </mxCell>
        <mxCell id="Vz5odyzkAsPH56J9xHiT-20" value="" style="endArrow=none;html=1;rounded=0;hachureGap=4;fontFamily=Architects Daughter;fontSource=https%3A%2F%2Ffonts.googleapis.com%2Fcss%3Ffamily%3DArchitects%2BDaughter;entryX=0;entryY=0.5;entryDx=0;entryDy=0;exitX=1;exitY=0.5;exitDx=0;exitDy=0;" edge="1" parent="1" source="Vz5odyzkAsPH56J9xHiT-15" target="uez7i5JUk1GxDRyKmDfl-44">
          <mxGeometry width="50" height="50" relative="1" as="geometry">
            <mxPoint x="2240" y="140" as="sourcePoint" />
            <mxPoint x="2492.5" y="280" as="targetPoint" />
          </mxGeometry>
        </mxCell>
        <mxCell id="Vz5odyzkAsPH56J9xHiT-21" value="" style="endArrow=none;html=1;rounded=0;hachureGap=4;fontFamily=Architects Daughter;fontSource=https%3A%2F%2Ffonts.googleapis.com%2Fcss%3Ffamily%3DArchitects%2BDaughter;exitX=1;exitY=0.5;exitDx=0;exitDy=0;entryX=0;entryY=0.5;entryDx=0;entryDy=0;" edge="1" parent="1" source="Vz5odyzkAsPH56J9xHiT-17" target="uez7i5JUk1GxDRyKmDfl-44">
          <mxGeometry width="50" height="50" relative="1" as="geometry">
            <mxPoint x="2517.5" y="465" as="sourcePoint" />
            <mxPoint x="2315.5" y="600" as="targetPoint" />
          </mxGeometry>
        </mxCell>
        <mxCell id="Vz5odyzkAsPH56J9xHiT-22" value="" style="endArrow=none;html=1;rounded=0;hachureGap=4;fontFamily=Architects Daughter;fontSource=https%3A%2F%2Ffonts.googleapis.com%2Fcss%3Ffamily%3DArchitects%2BDaughter;exitX=1;exitY=0.5;exitDx=0;exitDy=0;entryX=0;entryY=0.5;entryDx=0;entryDy=0;" edge="1" parent="1" source="Vz5odyzkAsPH56J9xHiT-18" target="uez7i5JUk1GxDRyKmDfl-44">
          <mxGeometry width="50" height="50" relative="1" as="geometry">
            <mxPoint x="2517.5" y="530" as="sourcePoint" />
            <mxPoint x="2220" y="590" as="targetPoint" />
          </mxGeometry>
        </mxCell>
        <mxCell id="Vz5odyzkAsPH56J9xHiT-23" value="" style="endArrow=none;html=1;rounded=0;hachureGap=4;fontFamily=Architects Daughter;fontSource=https%3A%2F%2Ffonts.googleapis.com%2Fcss%3Ffamily%3DArchitects%2BDaughter;exitX=1;exitY=0.5;exitDx=0;exitDy=0;entryX=0;entryY=0.5;entryDx=0;entryDy=0;" edge="1" parent="1" source="Vz5odyzkAsPH56J9xHiT-19" target="uez7i5JUk1GxDRyKmDfl-44">
          <mxGeometry width="50" height="50" relative="1" as="geometry">
            <mxPoint x="2517.5" y="595" as="sourcePoint" />
            <mxPoint x="2315.5" y="600" as="targetPoint" />
          </mxGeometry>
        </mxCell>
        <mxCell id="Vz5odyzkAsPH56J9xHiT-31" value="" style="endArrow=none;html=1;rounded=0;hachureGap=4;fontFamily=Architects Daughter;fontSource=https%3A%2F%2Ffonts.googleapis.com%2Fcss%3Ffamily%3DArchitects%2BDaughter;entryX=0;entryY=0.5;entryDx=0;entryDy=0;exitX=1;exitY=0.5;exitDx=0;exitDy=0;" edge="1" parent="1" source="uez7i5JUk1GxDRyKmDfl-8" target="Vz5odyzkAsPH56J9xHiT-15">
          <mxGeometry width="50" height="50" relative="1" as="geometry">
            <mxPoint x="2325" y="145" as="sourcePoint" />
            <mxPoint x="2415" y="483" as="targetPoint" />
          </mxGeometry>
        </mxCell>
        <mxCell id="Vz5odyzkAsPH56J9xHiT-32" value="" style="endArrow=none;html=1;rounded=0;hachureGap=4;fontFamily=Architects Daughter;fontSource=https%3A%2F%2Ffonts.googleapis.com%2Fcss%3Ffamily%3DArchitects%2BDaughter;entryX=0;entryY=0.5;entryDx=0;entryDy=0;exitX=1;exitY=0.5;exitDx=0;exitDy=0;" edge="1" parent="1" source="uez7i5JUk1GxDRyKmDfl-19" target="Vz5odyzkAsPH56J9xHiT-17">
          <mxGeometry width="50" height="50" relative="1" as="geometry">
            <mxPoint x="1820" y="144" as="sourcePoint" />
            <mxPoint x="2200" y="145" as="targetPoint" />
          </mxGeometry>
        </mxCell>
        <mxCell id="Vz5odyzkAsPH56J9xHiT-34" value="" style="endArrow=none;html=1;rounded=0;hachureGap=4;fontFamily=Architects Daughter;fontSource=https%3A%2F%2Ffonts.googleapis.com%2Fcss%3Ffamily%3DArchitects%2BDaughter;entryX=0;entryY=0.5;entryDx=0;entryDy=0;exitX=1;exitY=0.5;exitDx=0;exitDy=0;" edge="1" parent="1" source="uez7i5JUk1GxDRyKmDfl-30" target="Vz5odyzkAsPH56J9xHiT-18">
          <mxGeometry width="50" height="50" relative="1" as="geometry">
            <mxPoint x="2040" y="358" as="sourcePoint" />
            <mxPoint x="2200" y="285" as="targetPoint" />
          </mxGeometry>
        </mxCell>
        <mxCell id="Vz5odyzkAsPH56J9xHiT-35" value="" style="endArrow=none;html=1;rounded=0;hachureGap=4;fontFamily=Architects Daughter;fontSource=https%3A%2F%2Ffonts.googleapis.com%2Fcss%3Ffamily%3DArchitects%2BDaughter;entryX=0;entryY=0.5;entryDx=0;entryDy=0;exitX=0.5;exitY=0;exitDx=0;exitDy=0;" edge="1" parent="1" source="uez7i5JUk1GxDRyKmDfl-37" target="Vz5odyzkAsPH56J9xHiT-19">
          <mxGeometry width="50" height="50" relative="1" as="geometry">
            <mxPoint x="1960" y="640" as="sourcePoint" />
            <mxPoint x="2210" y="428" as="targetPoint" />
          </mxGeometry>
        </mxCell>
        <mxCell id="Vz5odyzkAsPH56J9xHiT-37" value="" style="endArrow=none;html=1;rounded=0;hachureGap=4;fontFamily=Architects Daughter;fontSource=https%3A%2F%2Ffonts.googleapis.com%2Fcss%3Ffamily%3DArchitects%2BDaughter;exitX=1;exitY=0.5;exitDx=0;exitDy=0;entryX=0;entryY=0.5;entryDx=0;entryDy=0;" edge="1" parent="1" source="uez7i5JUk1GxDRyKmDfl-1" target="Vz5odyzkAsPH56J9xHiT-38">
          <mxGeometry width="50" height="50" relative="1" as="geometry">
            <mxPoint x="1325" y="168" as="sourcePoint" />
            <mxPoint x="1400" y="660" as="targetPoint" />
          </mxGeometry>
        </mxCell>
        <mxCell id="Vz5odyzkAsPH56J9xHiT-38" value="Memiliki" style="rhombus;whiteSpace=wrap;html=1;fontFamily=Times New Roman;" vertex="1" parent="1">
          <mxGeometry x="1420" y="720" width="125" height="50" as="geometry" />
        </mxCell>
        <mxCell id="Vz5odyzkAsPH56J9xHiT-39" value="" style="endArrow=none;html=1;rounded=0;hachureGap=4;fontFamily=Architects Daughter;fontSource=https%3A%2F%2Ffonts.googleapis.com%2Fcss%3Ffamily%3DArchitects%2BDaughter;exitX=1;exitY=0.5;exitDx=0;exitDy=0;entryX=0;entryY=0.5;entryDx=0;entryDy=0;" edge="1" parent="1" source="Vz5odyzkAsPH56J9xHiT-38" target="uez7i5JUk1GxDRyKmDfl-44">
          <mxGeometry width="50" height="50" relative="1" as="geometry">
            <mxPoint x="2245" y="575" as="sourcePoint" />
            <mxPoint x="2325" y="483" as="targetPoint" />
            <Array as="points">
              <mxPoint x="2315" y="740" />
            </Array>
          </mxGeometry>
        </mxCell>
        <mxCell id="Vz5odyzkAsPH56J9xHiT-40" value="" style="endArrow=none;html=1;rounded=0;hachureGap=4;fontFamily=Architects Daughter;fontSource=https%3A%2F%2Ffonts.googleapis.com%2Fcss%3Ffamily%3DArchitects%2BDaughter;exitX=0.5;exitY=0;exitDx=0;exitDy=0;entryX=0.788;entryY=0.982;entryDx=0;entryDy=0;entryPerimeter=0;" edge="1" parent="1" source="uez7i5JUk1GxDRyKmDfl-45" target="uez7i5JUk1GxDRyKmDfl-44">
          <mxGeometry width="50" height="50" relative="1" as="geometry">
            <mxPoint x="2245" y="575" as="sourcePoint" />
            <mxPoint x="2325" y="483" as="targetPoint" />
          </mxGeometry>
        </mxCell>
        <mxCell id="Vz5odyzkAsPH56J9xHiT-41" value="" style="endArrow=none;html=1;rounded=0;hachureGap=4;fontFamily=Architects Daughter;fontSource=https%3A%2F%2Ffonts.googleapis.com%2Fcss%3Ffamily%3DArchitects%2BDaughter;exitX=0;exitY=0.5;exitDx=0;exitDy=0;entryX=1;entryY=0.5;entryDx=0;entryDy=0;" edge="1" parent="1" source="uez7i5JUk1GxDRyKmDfl-48" target="uez7i5JUk1GxDRyKmDfl-44">
          <mxGeometry width="50" height="50" relative="1" as="geometry">
            <mxPoint x="2420" y="520" as="sourcePoint" />
            <mxPoint x="2415" y="503" as="targetPoint" />
          </mxGeometry>
        </mxCell>
        <mxCell id="Vz5odyzkAsPH56J9xHiT-43" value="" style="endArrow=none;html=1;rounded=0;hachureGap=4;fontFamily=Architects Daughter;fontSource=https%3A%2F%2Ffonts.googleapis.com%2Fcss%3Ffamily%3DArchitects%2BDaughter;exitX=0.455;exitY=1.018;exitDx=0;exitDy=0;entryX=0.75;entryY=0;entryDx=0;entryDy=0;exitPerimeter=0;" edge="1" parent="1" source="uez7i5JUk1GxDRyKmDfl-46" target="uez7i5JUk1GxDRyKmDfl-44">
          <mxGeometry width="50" height="50" relative="1" as="geometry">
            <mxPoint x="2440" y="483" as="sourcePoint" />
            <mxPoint x="2415" y="483" as="targetPoint" />
          </mxGeometry>
        </mxCell>
        <mxCell id="Vz5odyzkAsPH56J9xHiT-44" value="" style="endArrow=none;html=1;rounded=0;hachureGap=4;fontFamily=Architects Daughter;fontSource=https%3A%2F%2Ffonts.googleapis.com%2Fcss%3Ffamily%3DArchitects%2BDaughter;exitX=0.348;exitY=0.955;exitDx=0;exitDy=0;entryX=1;entryY=0;entryDx=0;entryDy=0;exitPerimeter=0;" edge="1" parent="1" source="uez7i5JUk1GxDRyKmDfl-25" target="uez7i5JUk1GxDRyKmDfl-19">
          <mxGeometry width="50" height="50" relative="1" as="geometry">
            <mxPoint x="2420" y="520" as="sourcePoint" />
            <mxPoint x="2396" y="502" as="targetPoint" />
          </mxGeometry>
        </mxCell>
        <mxCell id="Vz5odyzkAsPH56J9xHiT-45" value="" style="endArrow=none;html=1;rounded=0;hachureGap=4;fontFamily=Architects Daughter;fontSource=https%3A%2F%2Ffonts.googleapis.com%2Fcss%3Ffamily%3DArchitects%2BDaughter;exitX=0.5;exitY=1;exitDx=0;exitDy=0;entryX=0.75;entryY=0;entryDx=0;entryDy=0;" edge="1" parent="1" source="uez7i5JUk1GxDRyKmDfl-24" target="uez7i5JUk1GxDRyKmDfl-19">
          <mxGeometry width="50" height="50" relative="1" as="geometry">
            <mxPoint x="2011" y="305" as="sourcePoint" />
            <mxPoint x="1990" y="317" as="targetPoint" />
          </mxGeometry>
        </mxCell>
        <mxCell id="Vz5odyzkAsPH56J9xHiT-46" value="" style="endArrow=none;html=1;rounded=0;hachureGap=4;fontFamily=Architects Daughter;fontSource=https%3A%2F%2Ffonts.googleapis.com%2Fcss%3Ffamily%3DArchitects%2BDaughter;exitX=0.5;exitY=1;exitDx=0;exitDy=0;entryX=0.5;entryY=0;entryDx=0;entryDy=0;" edge="1" parent="1" source="uez7i5JUk1GxDRyKmDfl-23" target="uez7i5JUk1GxDRyKmDfl-19">
          <mxGeometry width="50" height="50" relative="1" as="geometry">
            <mxPoint x="1980" y="257" as="sourcePoint" />
            <mxPoint x="1965" y="317" as="targetPoint" />
          </mxGeometry>
        </mxCell>
        <mxCell id="Vz5odyzkAsPH56J9xHiT-47" value="" style="endArrow=none;html=1;rounded=0;hachureGap=4;fontFamily=Architects Daughter;fontSource=https%3A%2F%2Ffonts.googleapis.com%2Fcss%3Ffamily%3DArchitects%2BDaughter;exitX=0.5;exitY=1;exitDx=0;exitDy=0;entryX=0.25;entryY=0;entryDx=0;entryDy=0;" edge="1" parent="1" source="uez7i5JUk1GxDRyKmDfl-29" target="uez7i5JUk1GxDRyKmDfl-19">
          <mxGeometry width="50" height="50" relative="1" as="geometry">
            <mxPoint x="1940" y="307" as="sourcePoint" />
            <mxPoint x="1940" y="317" as="targetPoint" />
          </mxGeometry>
        </mxCell>
        <mxCell id="Vz5odyzkAsPH56J9xHiT-48" value="" style="endArrow=none;html=1;rounded=0;hachureGap=4;fontFamily=Architects Daughter;fontSource=https%3A%2F%2Ffonts.googleapis.com%2Fcss%3Ffamily%3DArchitects%2BDaughter;exitX=0.5;exitY=1;exitDx=0;exitDy=0;entryX=0;entryY=0;entryDx=0;entryDy=0;" edge="1" parent="1" source="uez7i5JUk1GxDRyKmDfl-21" target="uez7i5JUk1GxDRyKmDfl-19">
          <mxGeometry width="50" height="50" relative="1" as="geometry">
            <mxPoint x="1890" y="257" as="sourcePoint" />
            <mxPoint x="1915" y="317" as="targetPoint" />
          </mxGeometry>
        </mxCell>
        <mxCell id="Vz5odyzkAsPH56J9xHiT-49" value="" style="endArrow=none;html=1;rounded=0;hachureGap=4;fontFamily=Architects Daughter;fontSource=https%3A%2F%2Ffonts.googleapis.com%2Fcss%3Ffamily%3DArchitects%2BDaughter;exitX=0.5;exitY=0;exitDx=0;exitDy=0;entryX=0;entryY=1;entryDx=0;entryDy=0;" edge="1" parent="1" source="uez7i5JUk1GxDRyKmDfl-28" target="uez7i5JUk1GxDRyKmDfl-19">
          <mxGeometry width="50" height="50" relative="1" as="geometry">
            <mxPoint x="1860" y="307" as="sourcePoint" />
            <mxPoint x="1890" y="317" as="targetPoint" />
          </mxGeometry>
        </mxCell>
        <mxCell id="Vz5odyzkAsPH56J9xHiT-50" value="" style="endArrow=none;html=1;rounded=0;hachureGap=4;fontFamily=Architects Daughter;fontSource=https%3A%2F%2Ffonts.googleapis.com%2Fcss%3Ffamily%3DArchitects%2BDaughter;exitX=0.5;exitY=0;exitDx=0;exitDy=0;entryX=0.25;entryY=1;entryDx=0;entryDy=0;" edge="1" parent="1" source="uez7i5JUk1GxDRyKmDfl-22" target="uez7i5JUk1GxDRyKmDfl-19">
          <mxGeometry width="50" height="50" relative="1" as="geometry">
            <mxPoint x="1860" y="377" as="sourcePoint" />
            <mxPoint x="1890" y="367" as="targetPoint" />
          </mxGeometry>
        </mxCell>
        <mxCell id="Vz5odyzkAsPH56J9xHiT-51" value="" style="endArrow=none;html=1;rounded=0;hachureGap=4;fontFamily=Architects Daughter;fontSource=https%3A%2F%2Ffonts.googleapis.com%2Fcss%3Ffamily%3DArchitects%2BDaughter;exitX=0.5;exitY=0;exitDx=0;exitDy=0;entryX=0.5;entryY=1;entryDx=0;entryDy=0;" edge="1" parent="1" source="uez7i5JUk1GxDRyKmDfl-27" target="uez7i5JUk1GxDRyKmDfl-19">
          <mxGeometry width="50" height="50" relative="1" as="geometry">
            <mxPoint x="1900" y="425" as="sourcePoint" />
            <mxPoint x="1915" y="367" as="targetPoint" />
          </mxGeometry>
        </mxCell>
        <mxCell id="Vz5odyzkAsPH56J9xHiT-52" value="" style="endArrow=none;html=1;rounded=0;hachureGap=4;fontFamily=Architects Daughter;fontSource=https%3A%2F%2Ffonts.googleapis.com%2Fcss%3Ffamily%3DArchitects%2BDaughter;exitX=0.5;exitY=0;exitDx=0;exitDy=0;entryX=0.75;entryY=1;entryDx=0;entryDy=0;" edge="1" parent="1" source="uez7i5JUk1GxDRyKmDfl-20" target="uez7i5JUk1GxDRyKmDfl-19">
          <mxGeometry width="50" height="50" relative="1" as="geometry">
            <mxPoint x="1940" y="377" as="sourcePoint" />
            <mxPoint x="1940" y="367" as="targetPoint" />
          </mxGeometry>
        </mxCell>
        <mxCell id="Vz5odyzkAsPH56J9xHiT-53" value="" style="endArrow=none;html=1;rounded=0;hachureGap=4;fontFamily=Architects Daughter;fontSource=https%3A%2F%2Ffonts.googleapis.com%2Fcss%3Ffamily%3DArchitects%2BDaughter;exitX=0.5;exitY=0;exitDx=0;exitDy=0;entryX=1;entryY=1;entryDx=0;entryDy=0;" edge="1" parent="1" source="uez7i5JUk1GxDRyKmDfl-26" target="uez7i5JUk1GxDRyKmDfl-19">
          <mxGeometry width="50" height="50" relative="1" as="geometry">
            <mxPoint x="1980" y="425" as="sourcePoint" />
            <mxPoint x="1965" y="367" as="targetPoint" />
          </mxGeometry>
        </mxCell>
        <mxCell id="Vz5odyzkAsPH56J9xHiT-54" value="" style="endArrow=none;html=1;rounded=0;hachureGap=4;fontFamily=Architects Daughter;fontSource=https%3A%2F%2Ffonts.googleapis.com%2Fcss%3Ffamily%3DArchitects%2BDaughter;exitX=0;exitY=0.5;exitDx=0;exitDy=0;entryX=1;entryY=0.5;entryDx=0;entryDy=0;" edge="1" parent="1" source="uez7i5JUk1GxDRyKmDfl-39" target="uez7i5JUk1GxDRyKmDfl-37">
          <mxGeometry width="50" height="50" relative="1" as="geometry">
            <mxPoint x="2020" y="377" as="sourcePoint" />
            <mxPoint x="1990" y="367" as="targetPoint" />
          </mxGeometry>
        </mxCell>
        <mxCell id="Vz5odyzkAsPH56J9xHiT-55" value="" style="endArrow=none;html=1;rounded=0;hachureGap=4;fontFamily=Architects Daughter;fontSource=https%3A%2F%2Ffonts.googleapis.com%2Fcss%3Ffamily%3DArchitects%2BDaughter;exitX=0.5;exitY=0;exitDx=0;exitDy=0;entryX=1;entryY=1;entryDx=0;entryDy=0;" edge="1" parent="1" source="uez7i5JUk1GxDRyKmDfl-42" target="uez7i5JUk1GxDRyKmDfl-37">
          <mxGeometry width="50" height="50" relative="1" as="geometry">
            <mxPoint x="2030" y="655" as="sourcePoint" />
            <mxPoint x="2000" y="648" as="targetPoint" />
          </mxGeometry>
        </mxCell>
        <mxCell id="Vz5odyzkAsPH56J9xHiT-56" value="" style="endArrow=none;html=1;rounded=0;hachureGap=4;fontFamily=Architects Daughter;fontSource=https%3A%2F%2Ffonts.googleapis.com%2Fcss%3Ffamily%3DArchitects%2BDaughter;exitX=0.5;exitY=0;exitDx=0;exitDy=0;entryX=0.5;entryY=1;entryDx=0;entryDy=0;" edge="1" parent="1" source="uez7i5JUk1GxDRyKmDfl-43" target="uez7i5JUk1GxDRyKmDfl-37">
          <mxGeometry width="50" height="50" relative="1" as="geometry">
            <mxPoint x="2020" y="690" as="sourcePoint" />
            <mxPoint x="2000" y="675" as="targetPoint" />
          </mxGeometry>
        </mxCell>
        <mxCell id="Vz5odyzkAsPH56J9xHiT-57" value="" style="endArrow=none;html=1;rounded=0;hachureGap=4;fontFamily=Architects Daughter;fontSource=https%3A%2F%2Ffonts.googleapis.com%2Fcss%3Ffamily%3DArchitects%2BDaughter;exitX=0.5;exitY=0;exitDx=0;exitDy=0;entryX=0;entryY=1;entryDx=0;entryDy=0;" edge="1" parent="1" source="uez7i5JUk1GxDRyKmDfl-41" target="uez7i5JUk1GxDRyKmDfl-37">
          <mxGeometry width="50" height="50" relative="1" as="geometry">
            <mxPoint x="1940" y="690" as="sourcePoint" />
            <mxPoint x="1940" y="675" as="targetPoint" />
          </mxGeometry>
        </mxCell>
        <mxCell id="Vz5odyzkAsPH56J9xHiT-58" value="" style="endArrow=none;html=1;rounded=0;hachureGap=4;fontFamily=Architects Daughter;fontSource=https%3A%2F%2Ffonts.googleapis.com%2Fcss%3Ffamily%3DArchitects%2BDaughter;exitX=1;exitY=0.5;exitDx=0;exitDy=0;entryX=0;entryY=0.5;entryDx=0;entryDy=0;" edge="1" parent="1" source="uez7i5JUk1GxDRyKmDfl-38" target="uez7i5JUk1GxDRyKmDfl-37">
          <mxGeometry width="50" height="50" relative="1" as="geometry">
            <mxPoint x="1860" y="690" as="sourcePoint" />
            <mxPoint x="1880" y="675" as="targetPoint" />
          </mxGeometry>
        </mxCell>
        <mxCell id="Vz5odyzkAsPH56J9xHiT-59" value="" style="endArrow=none;html=1;rounded=0;hachureGap=4;fontFamily=Architects Daughter;fontSource=https%3A%2F%2Ffonts.googleapis.com%2Fcss%3Ffamily%3DArchitects%2BDaughter;exitX=0.5;exitY=0;exitDx=0;exitDy=0;entryX=0.5;entryY=1;entryDx=0;entryDy=0;" edge="1" parent="1" source="uez7i5JUk1GxDRyKmDfl-35" target="uez7i5JUk1GxDRyKmDfl-30">
          <mxGeometry width="50" height="50" relative="1" as="geometry">
            <mxPoint x="1850" y="655" as="sourcePoint" />
            <mxPoint x="1880" y="648" as="targetPoint" />
          </mxGeometry>
        </mxCell>
        <mxCell id="Vz5odyzkAsPH56J9xHiT-60" value="" style="endArrow=none;html=1;rounded=0;hachureGap=4;fontFamily=Architects Daughter;fontSource=https%3A%2F%2Ffonts.googleapis.com%2Fcss%3Ffamily%3DArchitects%2BDaughter;entryX=1;entryY=1;entryDx=0;entryDy=0;exitX=0.5;exitY=0;exitDx=0;exitDy=0;" edge="1" parent="1" source="uez7i5JUk1GxDRyKmDfl-33" target="uez7i5JUk1GxDRyKmDfl-30">
          <mxGeometry width="50" height="50" relative="1" as="geometry">
            <mxPoint x="1700" y="535" as="sourcePoint" />
            <mxPoint x="1700" y="505" as="targetPoint" />
          </mxGeometry>
        </mxCell>
        <mxCell id="Vz5odyzkAsPH56J9xHiT-61" value="" style="endArrow=none;html=1;rounded=0;hachureGap=4;fontFamily=Architects Daughter;fontSource=https%3A%2F%2Ffonts.googleapis.com%2Fcss%3Ffamily%3DArchitects%2BDaughter;entryX=1;entryY=0;entryDx=0;entryDy=0;exitX=0.5;exitY=1;exitDx=0;exitDy=0;" edge="1" parent="1" source="uez7i5JUk1GxDRyKmDfl-36" target="uez7i5JUk1GxDRyKmDfl-30">
          <mxGeometry width="50" height="50" relative="1" as="geometry">
            <mxPoint x="1775" y="515" as="sourcePoint" />
            <mxPoint x="1745" y="505" as="targetPoint" />
          </mxGeometry>
        </mxCell>
        <mxCell id="Vz5odyzkAsPH56J9xHiT-62" value="" style="endArrow=none;html=1;rounded=0;hachureGap=4;fontFamily=Architects Daughter;fontSource=https%3A%2F%2Ffonts.googleapis.com%2Fcss%3Ffamily%3DArchitects%2BDaughter;entryX=0.5;entryY=0;entryDx=0;entryDy=0;exitX=0.5;exitY=1;exitDx=0;exitDy=0;" edge="1" parent="1" source="uez7i5JUk1GxDRyKmDfl-34" target="uez7i5JUk1GxDRyKmDfl-30">
          <mxGeometry width="50" height="50" relative="1" as="geometry">
            <mxPoint x="1775" y="455" as="sourcePoint" />
            <mxPoint x="1745" y="465" as="targetPoint" />
          </mxGeometry>
        </mxCell>
        <mxCell id="Vz5odyzkAsPH56J9xHiT-63" value="" style="endArrow=none;html=1;rounded=0;hachureGap=4;fontFamily=Architects Daughter;fontSource=https%3A%2F%2Ffonts.googleapis.com%2Fcss%3Ffamily%3DArchitects%2BDaughter;entryX=0;entryY=0;entryDx=0;entryDy=0;exitX=0.5;exitY=1;exitDx=0;exitDy=0;" edge="1" parent="1" source="uez7i5JUk1GxDRyKmDfl-31" target="uez7i5JUk1GxDRyKmDfl-30">
          <mxGeometry width="50" height="50" relative="1" as="geometry">
            <mxPoint x="1700" y="440" as="sourcePoint" />
            <mxPoint x="1700" y="465" as="targetPoint" />
          </mxGeometry>
        </mxCell>
        <mxCell id="Vz5odyzkAsPH56J9xHiT-64" value="" style="endArrow=none;html=1;rounded=0;hachureGap=4;fontFamily=Architects Daughter;fontSource=https%3A%2F%2Ffonts.googleapis.com%2Fcss%3Ffamily%3DArchitects%2BDaughter;entryX=0;entryY=1;entryDx=0;entryDy=0;exitX=0.5;exitY=0;exitDx=0;exitDy=0;" edge="1" parent="1" source="uez7i5JUk1GxDRyKmDfl-32" target="uez7i5JUk1GxDRyKmDfl-30">
          <mxGeometry width="50" height="50" relative="1" as="geometry">
            <mxPoint x="1625" y="455" as="sourcePoint" />
            <mxPoint x="1655" y="465" as="targetPoint" />
          </mxGeometry>
        </mxCell>
        <mxCell id="Vz5odyzkAsPH56J9xHiT-66" value="" style="endArrow=none;html=1;rounded=0;hachureGap=4;fontFamily=Architects Daughter;fontSource=https%3A%2F%2Ffonts.googleapis.com%2Fcss%3Ffamily%3DArchitects%2BDaughter;exitX=1;exitY=0.75;exitDx=0;exitDy=0;entryX=0.5;entryY=0;entryDx=0;entryDy=0;" edge="1" parent="1" source="uez7i5JUk1GxDRyKmDfl-8" target="uez7i5JUk1GxDRyKmDfl-15">
          <mxGeometry width="50" height="50" relative="1" as="geometry">
            <mxPoint x="1890" y="257" as="sourcePoint" />
            <mxPoint x="1915" y="317" as="targetPoint" />
          </mxGeometry>
        </mxCell>
        <mxCell id="Vz5odyzkAsPH56J9xHiT-67" value="" style="endArrow=none;html=1;rounded=0;hachureGap=4;fontFamily=Architects Daughter;fontSource=https%3A%2F%2Ffonts.googleapis.com%2Fcss%3Ffamily%3DArchitects%2BDaughter;exitX=0.75;exitY=1;exitDx=0;exitDy=0;entryX=0.5;entryY=0;entryDx=0;entryDy=0;" edge="1" parent="1" source="uez7i5JUk1GxDRyKmDfl-8" target="uez7i5JUk1GxDRyKmDfl-11">
          <mxGeometry width="50" height="50" relative="1" as="geometry">
            <mxPoint x="1785" y="158" as="sourcePoint" />
            <mxPoint x="1825" y="163" as="targetPoint" />
          </mxGeometry>
        </mxCell>
        <mxCell id="Vz5odyzkAsPH56J9xHiT-68" value="" style="endArrow=none;html=1;rounded=0;hachureGap=4;fontFamily=Architects Daughter;fontSource=https%3A%2F%2Ffonts.googleapis.com%2Fcss%3Ffamily%3DArchitects%2BDaughter;exitX=0.25;exitY=1;exitDx=0;exitDy=0;entryX=0.5;entryY=0;entryDx=0;entryDy=0;" edge="1" parent="1" source="uez7i5JUk1GxDRyKmDfl-8" target="uez7i5JUk1GxDRyKmDfl-16">
          <mxGeometry width="50" height="50" relative="1" as="geometry">
            <mxPoint x="1755" y="173" as="sourcePoint" />
            <mxPoint x="1765" y="189" as="targetPoint" />
          </mxGeometry>
        </mxCell>
        <mxCell id="Vz5odyzkAsPH56J9xHiT-69" value="" style="endArrow=none;html=1;rounded=0;hachureGap=4;fontFamily=Architects Daughter;fontSource=https%3A%2F%2Ffonts.googleapis.com%2Fcss%3Ffamily%3DArchitects%2BDaughter;entryX=0.5;entryY=0;entryDx=0;entryDy=0;exitX=0;exitY=0.75;exitDx=0;exitDy=0;" edge="1" parent="1" source="uez7i5JUk1GxDRyKmDfl-8" target="uez7i5JUk1GxDRyKmDfl-17">
          <mxGeometry width="50" height="50" relative="1" as="geometry">
            <mxPoint x="1650" y="140" as="sourcePoint" />
            <mxPoint x="1690" y="189" as="targetPoint" />
          </mxGeometry>
        </mxCell>
        <mxCell id="Vz5odyzkAsPH56J9xHiT-71" value="" style="endArrow=none;html=1;rounded=0;hachureGap=4;fontFamily=Architects Daughter;fontSource=https%3A%2F%2Ffonts.googleapis.com%2Fcss%3Ffamily%3DArchitects%2BDaughter;entryX=1;entryY=0.5;entryDx=0;entryDy=0;exitX=0;exitY=0;exitDx=0;exitDy=0;" edge="1" parent="1" source="uez7i5JUk1GxDRyKmDfl-8" target="uez7i5JUk1GxDRyKmDfl-12">
          <mxGeometry width="50" height="50" relative="1" as="geometry">
            <mxPoint x="1665" y="158" as="sourcePoint" />
            <mxPoint x="1625" y="163" as="targetPoint" />
          </mxGeometry>
        </mxCell>
        <mxCell id="Vz5odyzkAsPH56J9xHiT-72" value="" style="endArrow=none;html=1;rounded=0;hachureGap=4;fontFamily=Architects Daughter;fontSource=https%3A%2F%2Ffonts.googleapis.com%2Fcss%3Ffamily%3DArchitects%2BDaughter;entryX=0.5;entryY=1;entryDx=0;entryDy=0;exitX=0.25;exitY=0;exitDx=0;exitDy=0;" edge="1" parent="1" source="uez7i5JUk1GxDRyKmDfl-8" target="uez7i5JUk1GxDRyKmDfl-10">
          <mxGeometry width="50" height="50" relative="1" as="geometry">
            <mxPoint x="1670" y="90" as="sourcePoint" />
            <mxPoint x="1655" y="93" as="targetPoint" />
          </mxGeometry>
        </mxCell>
        <mxCell id="Vz5odyzkAsPH56J9xHiT-73" value="" style="endArrow=none;html=1;rounded=0;hachureGap=4;fontFamily=Architects Daughter;fontSource=https%3A%2F%2Ffonts.googleapis.com%2Fcss%3Ffamily%3DArchitects%2BDaughter;entryX=0.5;entryY=1;entryDx=0;entryDy=0;exitX=0.5;exitY=0;exitDx=0;exitDy=0;" edge="1" parent="1" source="uez7i5JUk1GxDRyKmDfl-8" target="uez7i5JUk1GxDRyKmDfl-14">
          <mxGeometry width="50" height="50" relative="1" as="geometry">
            <mxPoint x="1690" y="110" as="sourcePoint" />
            <mxPoint x="1670" y="59" as="targetPoint" />
          </mxGeometry>
        </mxCell>
        <mxCell id="Vz5odyzkAsPH56J9xHiT-74" value="" style="endArrow=none;html=1;rounded=0;hachureGap=4;fontFamily=Architects Daughter;fontSource=https%3A%2F%2Ffonts.googleapis.com%2Fcss%3Ffamily%3DArchitects%2BDaughter;entryX=0;entryY=0.5;entryDx=0;entryDy=0;exitX=1;exitY=0;exitDx=0;exitDy=0;" edge="1" parent="1" source="uez7i5JUk1GxDRyKmDfl-8" target="uez7i5JUk1GxDRyKmDfl-13">
          <mxGeometry width="50" height="50" relative="1" as="geometry">
            <mxPoint x="1725" y="113" as="sourcePoint" />
            <mxPoint x="1725" y="99" as="targetPoint" />
          </mxGeometry>
        </mxCell>
        <mxCell id="Vz5odyzkAsPH56J9xHiT-75" value="" style="endArrow=none;html=1;rounded=0;hachureGap=4;fontFamily=Architects Daughter;fontSource=https%3A%2F%2Ffonts.googleapis.com%2Fcss%3Ffamily%3DArchitects%2BDaughter;entryX=0.5;entryY=1;entryDx=0;entryDy=0;exitX=0.75;exitY=0;exitDx=0;exitDy=0;" edge="1" parent="1" source="uez7i5JUk1GxDRyKmDfl-8" target="uez7i5JUk1GxDRyKmDfl-9">
          <mxGeometry width="50" height="50" relative="1" as="geometry">
            <mxPoint x="1785" y="113" as="sourcePoint" />
            <mxPoint x="1795" y="93" as="targetPoint" />
          </mxGeometry>
        </mxCell>
        <mxCell id="Vz5odyzkAsPH56J9xHiT-76" value="" style="endArrow=none;html=1;rounded=0;hachureGap=4;fontFamily=Architects Daughter;fontSource=https%3A%2F%2Ffonts.googleapis.com%2Fcss%3Ffamily%3DArchitects%2BDaughter;entryX=0.5;entryY=1;entryDx=0;entryDy=0;exitX=1;exitY=0;exitDx=0;exitDy=0;" edge="1" parent="1" source="uez7i5JUk1GxDRyKmDfl-1" target="uez7i5JUk1GxDRyKmDfl-5">
          <mxGeometry width="50" height="50" relative="1" as="geometry">
            <mxPoint x="1755" y="113" as="sourcePoint" />
            <mxPoint x="1775" y="59" as="targetPoint" />
          </mxGeometry>
        </mxCell>
        <mxCell id="Vz5odyzkAsPH56J9xHiT-77" value="" style="endArrow=none;html=1;rounded=0;hachureGap=4;fontFamily=Architects Daughter;fontSource=https%3A%2F%2Ffonts.googleapis.com%2Fcss%3Ffamily%3DArchitects%2BDaughter;entryX=0.5;entryY=1;entryDx=0;entryDy=0;exitX=0.5;exitY=0;exitDx=0;exitDy=0;" edge="1" parent="1" source="uez7i5JUk1GxDRyKmDfl-1" target="uez7i5JUk1GxDRyKmDfl-2">
          <mxGeometry width="50" height="50" relative="1" as="geometry">
            <mxPoint x="1325" y="147" as="sourcePoint" />
            <mxPoint x="1334" y="133" as="targetPoint" />
          </mxGeometry>
        </mxCell>
        <mxCell id="Vz5odyzkAsPH56J9xHiT-78" value="" style="endArrow=none;html=1;rounded=0;hachureGap=4;fontFamily=Architects Daughter;fontSource=https%3A%2F%2Ffonts.googleapis.com%2Fcss%3Ffamily%3DArchitects%2BDaughter;entryX=0.5;entryY=1;entryDx=0;entryDy=0;exitX=0;exitY=0;exitDx=0;exitDy=0;" edge="1" parent="1" source="uez7i5JUk1GxDRyKmDfl-1" target="uez7i5JUk1GxDRyKmDfl-7">
          <mxGeometry width="50" height="50" relative="1" as="geometry">
            <mxPoint x="1275" y="147" as="sourcePoint" />
            <mxPoint x="1275" y="120" as="targetPoint" />
          </mxGeometry>
        </mxCell>
        <mxCell id="Vz5odyzkAsPH56J9xHiT-79" value="" style="endArrow=none;html=1;rounded=0;hachureGap=4;fontFamily=Architects Daughter;fontSource=https%3A%2F%2Ffonts.googleapis.com%2Fcss%3Ffamily%3DArchitects%2BDaughter;entryX=0;entryY=1;entryDx=0;entryDy=0;exitX=0.5;exitY=0;exitDx=0;exitDy=0;" edge="1" parent="1" source="uez7i5JUk1GxDRyKmDfl-4" target="uez7i5JUk1GxDRyKmDfl-1">
          <mxGeometry width="50" height="50" relative="1" as="geometry">
            <mxPoint x="1225" y="147" as="sourcePoint" />
            <mxPoint x="1220" y="119" as="targetPoint" />
          </mxGeometry>
        </mxCell>
        <mxCell id="Vz5odyzkAsPH56J9xHiT-80" value="" style="endArrow=none;html=1;rounded=0;hachureGap=4;fontFamily=Architects Daughter;fontSource=https%3A%2F%2Ffonts.googleapis.com%2Fcss%3Ffamily%3DArchitects%2BDaughter;entryX=0;entryY=0.5;entryDx=0;entryDy=0;exitX=1;exitY=0.5;exitDx=0;exitDy=0;" edge="1" parent="1" source="uez7i5JUk1GxDRyKmDfl-3" target="uez7i5JUk1GxDRyKmDfl-1">
          <mxGeometry width="50" height="50" relative="1" as="geometry">
            <mxPoint x="1220" y="223" as="sourcePoint" />
            <mxPoint x="1225" y="190" as="targetPoint" />
          </mxGeometry>
        </mxCell>
        <mxCell id="Vz5odyzkAsPH56J9xHiT-81" value="" style="endArrow=none;html=1;rounded=0;hachureGap=4;fontFamily=Architects Daughter;fontSource=https%3A%2F%2Ffonts.googleapis.com%2Fcss%3Ffamily%3DArchitects%2BDaughter;entryX=0.5;entryY=1;entryDx=0;entryDy=0;exitX=0.5;exitY=0;exitDx=0;exitDy=0;" edge="1" parent="1" source="uez7i5JUk1GxDRyKmDfl-6" target="uez7i5JUk1GxDRyKmDfl-1">
          <mxGeometry width="50" height="50" relative="1" as="geometry">
            <mxPoint x="1275" y="147" as="sourcePoint" />
            <mxPoint x="1275" y="120" as="targetPoint" />
          </mxGeometry>
        </mxCell>
        <mxCell id="Vz5odyzkAsPH56J9xHiT-82" value="1" style="text;html=1;align=center;verticalAlign=middle;whiteSpace=wrap;rounded=0;fontFamily=Times New Roman;" vertex="1" parent="1">
          <mxGeometry x="1375" y="109.5" width="60" height="30" as="geometry" />
        </mxCell>
        <mxCell id="Vz5odyzkAsPH56J9xHiT-83" value="N" style="text;html=1;align=center;verticalAlign=middle;whiteSpace=wrap;rounded=0;fontFamily=Times New Roman;" vertex="1" parent="1">
          <mxGeometry x="1530" y="107" width="60" height="30" as="geometry" />
        </mxCell>
        <mxCell id="Vz5odyzkAsPH56J9xHiT-84" value="N" style="text;html=1;align=center;verticalAlign=middle;whiteSpace=wrap;rounded=0;fontFamily=Times New Roman;" vertex="1" parent="1">
          <mxGeometry x="1395" y="690" width="60" height="30" as="geometry" />
        </mxCell>
        <mxCell id="Vz5odyzkAsPH56J9xHiT-85" value="1" style="text;html=1;align=center;verticalAlign=middle;whiteSpace=wrap;rounded=0;fontFamily=Times New Roman;" vertex="1" parent="1">
          <mxGeometry x="1395" y="530" width="60" height="30" as="geometry" />
        </mxCell>
        <mxCell id="Vz5odyzkAsPH56J9xHiT-86" value="1" style="text;html=1;align=center;verticalAlign=middle;whiteSpace=wrap;rounded=0;fontFamily=Times New Roman;" vertex="1" parent="1">
          <mxGeometry x="1385" y="414.5" width="60" height="30" as="geometry" />
        </mxCell>
        <mxCell id="Vz5odyzkAsPH56J9xHiT-87" value="1" style="text;html=1;align=center;verticalAlign=middle;whiteSpace=wrap;rounded=0;fontFamily=Times New Roman;" vertex="1" parent="1">
          <mxGeometry x="1385" y="280" width="60" height="30" as="geometry" />
        </mxCell>
        <mxCell id="Vz5odyzkAsPH56J9xHiT-88" value="M" style="text;html=1;align=center;verticalAlign=middle;whiteSpace=wrap;rounded=0;fontFamily=Times New Roman;" vertex="1" parent="1">
          <mxGeometry x="1530" y="710" width="60" height="30" as="geometry" />
        </mxCell>
        <mxCell id="Vz5odyzkAsPH56J9xHiT-89" value="1" style="text;html=1;align=center;verticalAlign=middle;whiteSpace=wrap;rounded=0;fontFamily=Times New Roman;" vertex="1" parent="1">
          <mxGeometry x="2220" y="139.5" width="60" height="30" as="geometry" />
        </mxCell>
        <mxCell id="Vz5odyzkAsPH56J9xHiT-90" value="1" style="text;html=1;align=center;verticalAlign=middle;whiteSpace=wrap;rounded=0;fontFamily=Times New Roman;" vertex="1" parent="1">
          <mxGeometry x="2210" y="327" width="60" height="30" as="geometry" />
        </mxCell>
        <mxCell id="Vz5odyzkAsPH56J9xHiT-91" value="1" style="text;html=1;align=center;verticalAlign=middle;whiteSpace=wrap;rounded=0;fontFamily=Times New Roman;" vertex="1" parent="1">
          <mxGeometry x="2220" y="452.5" width="60" height="30" as="geometry" />
        </mxCell>
        <mxCell id="Vz5odyzkAsPH56J9xHiT-92" value="1" style="text;html=1;align=center;verticalAlign=middle;whiteSpace=wrap;rounded=0;fontFamily=Times New Roman;" vertex="1" parent="1">
          <mxGeometry x="2210" y="530" width="60" height="30" as="geometry" />
        </mxCell>
        <mxCell id="Vz5odyzkAsPH56J9xHiT-93" value="N" style="text;html=1;align=center;verticalAlign=middle;whiteSpace=wrap;rounded=0;fontFamily=Times New Roman;" vertex="1" parent="1">
          <mxGeometry x="2060" y="540" width="60" height="30" as="geometry" />
        </mxCell>
        <mxCell id="Vz5odyzkAsPH56J9xHiT-94" value="N" style="text;html=1;align=center;verticalAlign=middle;whiteSpace=wrap;rounded=0;fontFamily=Times New Roman;" vertex="1" parent="1">
          <mxGeometry x="2060" y="444.5" width="60" height="30" as="geometry" />
        </mxCell>
        <mxCell id="Vz5odyzkAsPH56J9xHiT-95" value="N" style="text;html=1;align=center;verticalAlign=middle;whiteSpace=wrap;rounded=0;fontFamily=Times New Roman;" vertex="1" parent="1">
          <mxGeometry x="2060" y="307" width="60" height="30" as="geometry" />
        </mxCell>
        <mxCell id="Vz5odyzkAsPH56J9xHiT-96" value="N" style="text;html=1;align=center;verticalAlign=middle;whiteSpace=wrap;rounded=0;fontFamily=Times New Roman;" vertex="1" parent="1">
          <mxGeometry x="2060" y="107" width="60" height="30" as="geometry" />
        </mxCell>
        <mxCell id="Vz5odyzkAsPH56J9xHiT-97" value="N" style="text;html=1;align=center;verticalAlign=middle;whiteSpace=wrap;rounded=0;fontFamily=Times New Roman;" vertex="1" parent="1">
          <mxGeometry x="1530" y="297" width="60" height="30" as="geometry" />
        </mxCell>
        <mxCell id="Vz5odyzkAsPH56J9xHiT-98" value="N" style="text;html=1;align=center;verticalAlign=middle;whiteSpace=wrap;rounded=0;fontFamily=Times New Roman;" vertex="1" parent="1">
          <mxGeometry x="1530" y="449.5" width="60" height="30" as="geometry" />
        </mxCell>
        <mxCell id="Vz5odyzkAsPH56J9xHiT-99" value="N" style="text;html=1;align=center;verticalAlign=middle;whiteSpace=wrap;rounded=0;fontFamily=Times New Roman;" vertex="1" parent="1">
          <mxGeometry x="1530" y="545" width="60" height="30" as="geometry" />
        </mxCell>
      </root>
    </mxGraphModel>
  </diagram>
  <diagram id="mGJL9vTGD8J_HfHY5WNa" name="Page-3">
    <mxGraphModel dx="288" dy="894" grid="1" gridSize="10" guides="1" tooltips="1" connect="1" arrows="1" fold="1" page="1" pageScale="1" pageWidth="1100" pageHeight="850" math="0" shadow="0">
      <root>
        <mxCell id="0" />
        <mxCell id="1" parent="0" />
        <mxCell id="2RFzk03pveT5NRHJBbiu-1" value="Pelanggan" style="rounded=0;whiteSpace=wrap;html=1;fontFamily=Times New Roman;" vertex="1" parent="1">
          <mxGeometry x="160" y="210" width="120" height="60" as="geometry" />
        </mxCell>
        <mxCell id="2RFzk03pveT5NRHJBbiu-2" value="Nama" style="ellipse;whiteSpace=wrap;html=1;fontFamily=Times New Roman;" vertex="1" parent="1">
          <mxGeometry x="80" y="280" width="80" height="50" as="geometry" />
        </mxCell>
        <mxCell id="2RFzk03pveT5NRHJBbiu-3" value="Alamat" style="ellipse;whiteSpace=wrap;html=1;fontFamily=Times New Roman;" vertex="1" parent="1">
          <mxGeometry x="30" y="215" width="80" height="50" as="geometry" />
        </mxCell>
        <mxCell id="2RFzk03pveT5NRHJBbiu-4" value="No Telepon" style="ellipse;whiteSpace=wrap;html=1;fontFamily=Times New Roman;" vertex="1" parent="1">
          <mxGeometry x="80" y="150" width="80" height="50" as="geometry" />
        </mxCell>
        <mxCell id="2RFzk03pveT5NRHJBbiu-5" value="&lt;u&gt;Username&lt;/u&gt;" style="ellipse;whiteSpace=wrap;html=1;fontFamily=Times New Roman;" vertex="1" parent="1">
          <mxGeometry x="180" y="140" width="80" height="50" as="geometry" />
        </mxCell>
        <mxCell id="2RFzk03pveT5NRHJBbiu-6" value="Password" style="ellipse;whiteSpace=wrap;html=1;fontFamily=Times New Roman;" vertex="1" parent="1">
          <mxGeometry x="280" y="150" width="80" height="50" as="geometry" />
        </mxCell>
        <mxCell id="2RFzk03pveT5NRHJBbiu-7" value="Pemesanan" style="rounded=0;whiteSpace=wrap;html=1;fontFamily=Times New Roman;" vertex="1" parent="1">
          <mxGeometry x="560" y="210" width="120" height="60" as="geometry" />
        </mxCell>
        <mxCell id="2RFzk03pveT5NRHJBbiu-8" value="Tanggal Pemesanan" style="ellipse;whiteSpace=wrap;html=1;fontFamily=Times New Roman;" vertex="1" parent="1">
          <mxGeometry x="710" y="260" width="80" height="50" as="geometry" />
        </mxCell>
        <mxCell id="2RFzk03pveT5NRHJBbiu-9" value="Jumlah Pelanggan" style="ellipse;whiteSpace=wrap;html=1;fontFamily=Times New Roman;" vertex="1" parent="1">
          <mxGeometry x="710" y="195" width="80" height="50" as="geometry" />
        </mxCell>
        <mxCell id="2RFzk03pveT5NRHJBbiu-10" value="Menu yang Dipesan" style="ellipse;whiteSpace=wrap;html=1;fontFamily=Times New Roman;" vertex="1" parent="1">
          <mxGeometry x="480" y="150" width="80" height="50" as="geometry" />
        </mxCell>
        <mxCell id="2RFzk03pveT5NRHJBbiu-11" value="Segmentasi" style="ellipse;whiteSpace=wrap;html=1;fontFamily=Times New Roman;" vertex="1" parent="1">
          <mxGeometry x="580" y="130" width="80" height="50" as="geometry" />
        </mxCell>
        <mxCell id="2RFzk03pveT5NRHJBbiu-12" value="Total Pembayaran" style="ellipse;whiteSpace=wrap;html=1;fontFamily=Times New Roman;" vertex="1" parent="1">
          <mxGeometry x="680" y="130" width="80" height="50" as="geometry" />
        </mxCell>
        <mxCell id="2RFzk03pveT5NRHJBbiu-13" value="Menu Makanan" style="rounded=0;whiteSpace=wrap;html=1;fontFamily=Times New Roman;" vertex="1" parent="1">
          <mxGeometry x="160" y="635" width="120" height="60" as="geometry" />
        </mxCell>
        <mxCell id="2RFzk03pveT5NRHJBbiu-14" value="Harga" style="ellipse;whiteSpace=wrap;html=1;fontFamily=Times New Roman;" vertex="1" parent="1">
          <mxGeometry x="30" y="640" width="80" height="50" as="geometry" />
        </mxCell>
        <mxCell id="2RFzk03pveT5NRHJBbiu-15" value="&lt;u&gt;Nama Menu&lt;/u&gt;" style="ellipse;whiteSpace=wrap;html=1;fontFamily=Times New Roman;" vertex="1" parent="1">
          <mxGeometry x="80" y="575" width="80" height="50" as="geometry" />
        </mxCell>
        <mxCell id="2RFzk03pveT5NRHJBbiu-16" value="Resep" style="rounded=0;whiteSpace=wrap;html=1;fontFamily=Times New Roman;" vertex="1" parent="1">
          <mxGeometry x="700" y="726" width="120" height="60" as="geometry" />
        </mxCell>
        <mxCell id="2RFzk03pveT5NRHJBbiu-17" value="&lt;u&gt;Nama Resep&lt;/u&gt;" style="ellipse;whiteSpace=wrap;html=1;fontFamily=Times New Roman;" vertex="1" parent="1">
          <mxGeometry x="720" y="810" width="80" height="50" as="geometry" />
        </mxCell>
        <mxCell id="2RFzk03pveT5NRHJBbiu-18" value="Bahan Makanan" style="rounded=0;whiteSpace=wrap;html=1;fontFamily=Times New Roman;" vertex="1" parent="1">
          <mxGeometry x="347" y="725" width="120" height="60" as="geometry" />
        </mxCell>
        <mxCell id="2RFzk03pveT5NRHJBbiu-19" value="Pembayaran" style="rounded=0;whiteSpace=wrap;html=1;fontFamily=Times New Roman;" vertex="1" parent="1">
          <mxGeometry x="357" y="510" width="120" height="60" as="geometry" />
        </mxCell>
        <mxCell id="2RFzk03pveT5NRHJBbiu-20" value="&lt;u&gt;Nama Bahan&lt;/u&gt;" style="ellipse;whiteSpace=wrap;html=1;fontFamily=Times New Roman;" vertex="1" parent="1">
          <mxGeometry x="407.5" y="816" width="80" height="50" as="geometry" />
        </mxCell>
        <mxCell id="2RFzk03pveT5NRHJBbiu-21" value="Stok Bahan" style="ellipse;whiteSpace=wrap;html=1;fontFamily=Times New Roman;" vertex="1" parent="1">
          <mxGeometry x="310.5" y="816" width="80" height="50" as="geometry" />
        </mxCell>
        <mxCell id="2RFzk03pveT5NRHJBbiu-22" value="Jumlah Pembayaran" style="ellipse;whiteSpace=wrap;html=1;fontFamily=Times New Roman;" vertex="1" parent="1">
          <mxGeometry x="507" y="515" width="80" height="50" as="geometry" />
        </mxCell>
        <mxCell id="2RFzk03pveT5NRHJBbiu-23" value="Uang Pemesanan" style="ellipse;whiteSpace=wrap;html=1;fontFamily=Times New Roman;" vertex="1" parent="1">
          <mxGeometry x="477" y="590" width="80" height="50" as="geometry" />
        </mxCell>
        <mxCell id="2RFzk03pveT5NRHJBbiu-24" value="" style="endArrow=none;html=1;rounded=0;entryX=0;entryY=1;entryDx=0;entryDy=0;exitX=1;exitY=0;exitDx=0;exitDy=0;fontFamily=Times New Roman;" edge="1" parent="1" source="2RFzk03pveT5NRHJBbiu-2" target="2RFzk03pveT5NRHJBbiu-1">
          <mxGeometry width="50" height="50" relative="1" as="geometry">
            <mxPoint x="100" y="290" as="sourcePoint" />
            <mxPoint x="150" y="240" as="targetPoint" />
          </mxGeometry>
        </mxCell>
        <mxCell id="2RFzk03pveT5NRHJBbiu-25" value="" style="endArrow=none;html=1;rounded=0;exitX=1;exitY=0.5;exitDx=0;exitDy=0;entryX=0;entryY=0.5;entryDx=0;entryDy=0;fontFamily=Times New Roman;" edge="1" parent="1" source="2RFzk03pveT5NRHJBbiu-3" target="2RFzk03pveT5NRHJBbiu-1">
          <mxGeometry width="50" height="50" relative="1" as="geometry">
            <mxPoint x="100" y="290" as="sourcePoint" />
            <mxPoint x="150" y="240" as="targetPoint" />
          </mxGeometry>
        </mxCell>
        <mxCell id="2RFzk03pveT5NRHJBbiu-26" value="" style="endArrow=none;html=1;rounded=0;exitX=1;exitY=1;exitDx=0;exitDy=0;entryX=0;entryY=0;entryDx=0;entryDy=0;fontFamily=Times New Roman;" edge="1" parent="1" source="2RFzk03pveT5NRHJBbiu-4" target="2RFzk03pveT5NRHJBbiu-1">
          <mxGeometry width="50" height="50" relative="1" as="geometry">
            <mxPoint x="100" y="290" as="sourcePoint" />
            <mxPoint x="150" y="240" as="targetPoint" />
          </mxGeometry>
        </mxCell>
        <mxCell id="2RFzk03pveT5NRHJBbiu-27" value="" style="endArrow=none;html=1;rounded=0;exitX=0.5;exitY=1;exitDx=0;exitDy=0;entryX=0.5;entryY=0;entryDx=0;entryDy=0;fontFamily=Times New Roman;" edge="1" parent="1" source="2RFzk03pveT5NRHJBbiu-5" target="2RFzk03pveT5NRHJBbiu-1">
          <mxGeometry width="50" height="50" relative="1" as="geometry">
            <mxPoint x="100" y="290" as="sourcePoint" />
            <mxPoint x="150" y="240" as="targetPoint" />
          </mxGeometry>
        </mxCell>
        <mxCell id="2RFzk03pveT5NRHJBbiu-28" value="" style="endArrow=none;html=1;rounded=0;exitX=1;exitY=0;exitDx=0;exitDy=0;entryX=0;entryY=1;entryDx=0;entryDy=0;fontFamily=Times New Roman;" edge="1" parent="1" source="2RFzk03pveT5NRHJBbiu-1" target="2RFzk03pveT5NRHJBbiu-6">
          <mxGeometry width="50" height="50" relative="1" as="geometry">
            <mxPoint x="220" y="290" as="sourcePoint" />
            <mxPoint x="270" y="240" as="targetPoint" />
          </mxGeometry>
        </mxCell>
        <mxCell id="2RFzk03pveT5NRHJBbiu-29" value="" style="endArrow=none;html=1;rounded=0;exitX=0;exitY=0;exitDx=0;exitDy=0;entryX=1;entryY=1;entryDx=0;entryDy=0;fontFamily=Times New Roman;" edge="1" parent="1" source="2RFzk03pveT5NRHJBbiu-13" target="2RFzk03pveT5NRHJBbiu-15">
          <mxGeometry width="50" height="50" relative="1" as="geometry">
            <mxPoint x="80" y="395" as="sourcePoint" />
            <mxPoint x="130" y="345" as="targetPoint" />
          </mxGeometry>
        </mxCell>
        <mxCell id="2RFzk03pveT5NRHJBbiu-30" value="" style="endArrow=none;html=1;rounded=0;exitX=1;exitY=0.5;exitDx=0;exitDy=0;entryX=0;entryY=0.5;entryDx=0;entryDy=0;fontFamily=Times New Roman;" edge="1" parent="1" source="2RFzk03pveT5NRHJBbiu-14" target="2RFzk03pveT5NRHJBbiu-13">
          <mxGeometry width="50" height="50" relative="1" as="geometry">
            <mxPoint x="80" y="485" as="sourcePoint" />
            <mxPoint x="130" y="435" as="targetPoint" />
          </mxGeometry>
        </mxCell>
        <mxCell id="2RFzk03pveT5NRHJBbiu-31" value="" style="endArrow=none;html=1;rounded=0;exitX=0.5;exitY=0;exitDx=0;exitDy=0;entryX=0.5;entryY=1;entryDx=0;entryDy=0;fontFamily=Times New Roman;" edge="1" parent="1" source="2RFzk03pveT5NRHJBbiu-17" target="2RFzk03pveT5NRHJBbiu-16">
          <mxGeometry width="50" height="50" relative="1" as="geometry">
            <mxPoint x="779.77" y="806" as="sourcePoint" />
            <mxPoint x="779.77" y="786" as="targetPoint" />
          </mxGeometry>
        </mxCell>
        <mxCell id="2RFzk03pveT5NRHJBbiu-32" value="" style="endArrow=none;html=1;rounded=0;exitX=1;exitY=1;exitDx=0;exitDy=0;entryX=0;entryY=0;entryDx=0;entryDy=0;fontFamily=Times New Roman;" edge="1" parent="1" source="2RFzk03pveT5NRHJBbiu-7" target="2RFzk03pveT5NRHJBbiu-8">
          <mxGeometry width="50" height="50" relative="1" as="geometry">
            <mxPoint x="850" y="460" as="sourcePoint" />
            <mxPoint x="900" y="410" as="targetPoint" />
          </mxGeometry>
        </mxCell>
        <mxCell id="2RFzk03pveT5NRHJBbiu-33" value="" style="endArrow=none;html=1;rounded=0;exitX=1;exitY=0.5;exitDx=0;exitDy=0;entryX=0;entryY=0.5;entryDx=0;entryDy=0;fontFamily=Times New Roman;" edge="1" parent="1" source="2RFzk03pveT5NRHJBbiu-7" target="2RFzk03pveT5NRHJBbiu-9">
          <mxGeometry width="50" height="50" relative="1" as="geometry">
            <mxPoint x="880" y="380" as="sourcePoint" />
            <mxPoint x="930" y="330" as="targetPoint" />
          </mxGeometry>
        </mxCell>
        <mxCell id="2RFzk03pveT5NRHJBbiu-34" value="" style="endArrow=none;html=1;rounded=0;exitX=1;exitY=0;exitDx=0;exitDy=0;entryX=0;entryY=1;entryDx=0;entryDy=0;fontFamily=Times New Roman;" edge="1" parent="1" source="2RFzk03pveT5NRHJBbiu-7" target="2RFzk03pveT5NRHJBbiu-12">
          <mxGeometry width="50" height="50" relative="1" as="geometry">
            <mxPoint x="880" y="380" as="sourcePoint" />
            <mxPoint x="930" y="330" as="targetPoint" />
          </mxGeometry>
        </mxCell>
        <mxCell id="2RFzk03pveT5NRHJBbiu-35" value="" style="endArrow=none;html=1;rounded=0;exitX=0.5;exitY=0;exitDx=0;exitDy=0;entryX=0.5;entryY=1;entryDx=0;entryDy=0;fontFamily=Times New Roman;" edge="1" parent="1" source="2RFzk03pveT5NRHJBbiu-7" target="2RFzk03pveT5NRHJBbiu-11">
          <mxGeometry width="50" height="50" relative="1" as="geometry">
            <mxPoint x="700" y="270" as="sourcePoint" />
            <mxPoint x="750" y="220" as="targetPoint" />
          </mxGeometry>
        </mxCell>
        <mxCell id="2RFzk03pveT5NRHJBbiu-36" value="" style="endArrow=none;html=1;rounded=0;exitX=0;exitY=0;exitDx=0;exitDy=0;fontFamily=Times New Roman;" edge="1" parent="1" source="2RFzk03pveT5NRHJBbiu-7">
          <mxGeometry width="50" height="50" relative="1" as="geometry">
            <mxPoint x="700" y="270" as="sourcePoint" />
            <mxPoint x="550" y="190" as="targetPoint" />
          </mxGeometry>
        </mxCell>
        <mxCell id="2RFzk03pveT5NRHJBbiu-37" value="" style="endArrow=none;html=1;rounded=0;entryX=1;entryY=1;entryDx=0;entryDy=0;exitX=0.201;exitY=0.124;exitDx=0;exitDy=0;exitPerimeter=0;fontFamily=Times New Roman;" edge="1" parent="1" source="2RFzk03pveT5NRHJBbiu-23" target="2RFzk03pveT5NRHJBbiu-19">
          <mxGeometry width="50" height="50" relative="1" as="geometry">
            <mxPoint x="497" y="610" as="sourcePoint" />
            <mxPoint x="547" y="560" as="targetPoint" />
          </mxGeometry>
        </mxCell>
        <mxCell id="2RFzk03pveT5NRHJBbiu-38" value="" style="endArrow=none;html=1;rounded=0;entryX=0;entryY=0.5;entryDx=0;entryDy=0;exitX=1;exitY=0.5;exitDx=0;exitDy=0;fontFamily=Times New Roman;" edge="1" parent="1" source="2RFzk03pveT5NRHJBbiu-19" target="2RFzk03pveT5NRHJBbiu-22">
          <mxGeometry width="50" height="50" relative="1" as="geometry">
            <mxPoint x="497" y="610" as="sourcePoint" />
            <mxPoint x="547" y="560" as="targetPoint" />
          </mxGeometry>
        </mxCell>
        <mxCell id="2RFzk03pveT5NRHJBbiu-39" value="" style="endArrow=none;html=1;rounded=0;exitX=0.5;exitY=0;exitDx=0;exitDy=0;entryX=0.5;entryY=1;entryDx=0;entryDy=0;fontFamily=Times New Roman;" edge="1" parent="1" source="2RFzk03pveT5NRHJBbiu-20" target="2RFzk03pveT5NRHJBbiu-18">
          <mxGeometry width="50" height="50" relative="1" as="geometry">
            <mxPoint x="440.5" y="806" as="sourcePoint" />
            <mxPoint x="490.5" y="756" as="targetPoint" />
          </mxGeometry>
        </mxCell>
        <mxCell id="2RFzk03pveT5NRHJBbiu-40" value="" style="endArrow=none;html=1;rounded=0;exitX=0.5;exitY=0;exitDx=0;exitDy=0;entryX=0.5;entryY=1;entryDx=0;entryDy=0;fontFamily=Times New Roman;" edge="1" parent="1" source="2RFzk03pveT5NRHJBbiu-21" target="2RFzk03pveT5NRHJBbiu-18">
          <mxGeometry width="50" height="50" relative="1" as="geometry">
            <mxPoint x="440.5" y="806" as="sourcePoint" />
            <mxPoint x="490.5" y="756" as="targetPoint" />
          </mxGeometry>
        </mxCell>
        <mxCell id="2RFzk03pveT5NRHJBbiu-41" value="Membuat" style="rhombus;whiteSpace=wrap;html=1;fontFamily=Times New Roman;" vertex="1" parent="1">
          <mxGeometry x="360" y="215" width="125" height="50" as="geometry" />
        </mxCell>
        <mxCell id="2RFzk03pveT5NRHJBbiu-42" value="" style="endArrow=none;html=1;rounded=0;exitX=1;exitY=0.5;exitDx=0;exitDy=0;entryX=0;entryY=0.5;entryDx=0;entryDy=0;fontFamily=Times New Roman;" edge="1" parent="1" source="2RFzk03pveT5NRHJBbiu-1" target="2RFzk03pveT5NRHJBbiu-41">
          <mxGeometry width="50" height="50" relative="1" as="geometry">
            <mxPoint x="330" y="340" as="sourcePoint" />
            <mxPoint x="380" y="290" as="targetPoint" />
          </mxGeometry>
        </mxCell>
        <mxCell id="2RFzk03pveT5NRHJBbiu-43" value="" style="endArrow=none;html=1;rounded=0;entryX=0;entryY=0.5;entryDx=0;entryDy=0;exitX=1;exitY=0.5;exitDx=0;exitDy=0;fontFamily=Times New Roman;" edge="1" parent="1" source="2RFzk03pveT5NRHJBbiu-41">
          <mxGeometry width="50" height="50" relative="1" as="geometry">
            <mxPoint x="490" y="240" as="sourcePoint" />
            <mxPoint x="560" y="239.74" as="targetPoint" />
          </mxGeometry>
        </mxCell>
        <mxCell id="2RFzk03pveT5NRHJBbiu-44" value="1" style="text;html=1;align=center;verticalAlign=middle;whiteSpace=wrap;rounded=0;fontFamily=Times New Roman;" vertex="1" parent="1">
          <mxGeometry x="290" y="215" width="60" height="30" as="geometry" />
        </mxCell>
        <mxCell id="2RFzk03pveT5NRHJBbiu-45" value="N" style="text;html=1;align=center;verticalAlign=middle;whiteSpace=wrap;rounded=0;fontFamily=Times New Roman;" vertex="1" parent="1">
          <mxGeometry x="490" y="215" width="60" height="30" as="geometry" />
        </mxCell>
        <mxCell id="2RFzk03pveT5NRHJBbiu-46" value="Memiliki" style="rhombus;whiteSpace=wrap;html=1;fontFamily=Times New Roman;" vertex="1" parent="1">
          <mxGeometry x="354.5" y="370" width="125" height="50" as="geometry" />
        </mxCell>
        <mxCell id="2RFzk03pveT5NRHJBbiu-47" value="" style="endArrow=none;html=1;rounded=0;exitX=0.5;exitY=0;exitDx=0;exitDy=0;entryX=0.5;entryY=1;entryDx=0;entryDy=0;fontFamily=Times New Roman;" edge="1" parent="1" source="2RFzk03pveT5NRHJBbiu-46" target="2RFzk03pveT5NRHJBbiu-7">
          <mxGeometry width="50" height="50" relative="1" as="geometry">
            <mxPoint x="600" y="340" as="sourcePoint" />
            <mxPoint x="650" y="290" as="targetPoint" />
          </mxGeometry>
        </mxCell>
        <mxCell id="2RFzk03pveT5NRHJBbiu-48" value="" style="endArrow=none;html=1;rounded=0;exitX=0.5;exitY=1;exitDx=0;exitDy=0;entryX=0.5;entryY=0;entryDx=0;entryDy=0;fontFamily=Times New Roman;" edge="1" parent="1" source="2RFzk03pveT5NRHJBbiu-46" target="2RFzk03pveT5NRHJBbiu-19">
          <mxGeometry width="50" height="50" relative="1" as="geometry">
            <mxPoint x="277" y="430" as="sourcePoint" />
            <mxPoint x="449.5" y="100" as="targetPoint" />
          </mxGeometry>
        </mxCell>
        <mxCell id="2RFzk03pveT5NRHJBbiu-49" value="1" style="text;html=1;align=center;verticalAlign=middle;whiteSpace=wrap;rounded=0;fontFamily=Times New Roman;" vertex="1" parent="1">
          <mxGeometry x="477" y="300" width="60" height="30" as="geometry" />
        </mxCell>
        <mxCell id="2RFzk03pveT5NRHJBbiu-50" value="1" style="text;html=1;align=center;verticalAlign=middle;whiteSpace=wrap;rounded=0;fontFamily=Times New Roman;" vertex="1" parent="1">
          <mxGeometry x="367" y="450" width="60" height="30" as="geometry" />
        </mxCell>
        <mxCell id="2RFzk03pveT5NRHJBbiu-51" value="Termasuk" style="rhombus;whiteSpace=wrap;html=1;fontFamily=Times New Roman;" vertex="1" parent="1">
          <mxGeometry x="157" y="517.5" width="125" height="50" as="geometry" />
        </mxCell>
        <mxCell id="2RFzk03pveT5NRHJBbiu-52" value="" style="endArrow=none;html=1;rounded=0;exitX=0.5;exitY=0;exitDx=0;exitDy=0;entryX=0.5;entryY=1;entryDx=0;entryDy=0;fontFamily=Times New Roman;" edge="1" parent="1" source="2RFzk03pveT5NRHJBbiu-13" target="2RFzk03pveT5NRHJBbiu-51">
          <mxGeometry width="50" height="50" relative="1" as="geometry">
            <mxPoint x="77" y="542.5" as="sourcePoint" />
            <mxPoint x="147" y="582.5" as="targetPoint" />
          </mxGeometry>
        </mxCell>
        <mxCell id="2RFzk03pveT5NRHJBbiu-53" value="" style="endArrow=none;html=1;rounded=0;exitX=1;exitY=0.5;exitDx=0;exitDy=0;entryX=0;entryY=0.5;entryDx=0;entryDy=0;fontFamily=Times New Roman;" edge="1" parent="1" source="2RFzk03pveT5NRHJBbiu-51">
          <mxGeometry width="50" height="50" relative="1" as="geometry">
            <mxPoint x="267" y="632.5" as="sourcePoint" />
            <mxPoint x="357" y="542.5" as="targetPoint" />
          </mxGeometry>
        </mxCell>
        <mxCell id="2RFzk03pveT5NRHJBbiu-54" value="N" style="text;html=1;align=center;verticalAlign=middle;whiteSpace=wrap;rounded=0;fontFamily=Times New Roman;" vertex="1" parent="1">
          <mxGeometry x="287" y="512.5" width="60" height="30" as="geometry" />
        </mxCell>
        <mxCell id="2RFzk03pveT5NRHJBbiu-55" value="M" style="text;html=1;align=center;verticalAlign=middle;whiteSpace=wrap;rounded=0;fontFamily=Times New Roman;" vertex="1" parent="1">
          <mxGeometry x="200" y="585" width="60" height="30" as="geometry" />
        </mxCell>
        <mxCell id="2RFzk03pveT5NRHJBbiu-56" value="Terdapat di" style="rhombus;whiteSpace=wrap;html=1;fontFamily=Times New Roman;" vertex="1" parent="1">
          <mxGeometry x="157.5" y="730" width="125" height="50" as="geometry" />
        </mxCell>
        <mxCell id="2RFzk03pveT5NRHJBbiu-57" value="" style="endArrow=none;html=1;rounded=0;exitX=0.5;exitY=0;exitDx=0;exitDy=0;entryX=0.5;entryY=1;entryDx=0;entryDy=0;fontFamily=Times New Roman;" edge="1" parent="1" source="2RFzk03pveT5NRHJBbiu-56" target="2RFzk03pveT5NRHJBbiu-13">
          <mxGeometry width="50" height="50" relative="1" as="geometry">
            <mxPoint x="190" y="705" as="sourcePoint" />
            <mxPoint x="240" y="655" as="targetPoint" />
          </mxGeometry>
        </mxCell>
        <mxCell id="2RFzk03pveT5NRHJBbiu-58" value="" style="endArrow=none;html=1;rounded=0;exitX=0;exitY=0.5;exitDx=0;exitDy=0;entryX=0.187;entryY=0.957;entryDx=0;entryDy=0;entryPerimeter=0;fontFamily=Times New Roman;" edge="1" parent="1" source="2RFzk03pveT5NRHJBbiu-18" target="2RFzk03pveT5NRHJBbiu-60">
          <mxGeometry width="50" height="50" relative="1" as="geometry">
            <mxPoint x="350.5" y="650" as="sourcePoint" />
            <mxPoint x="303" y="755" as="targetPoint" />
          </mxGeometry>
        </mxCell>
        <mxCell id="2RFzk03pveT5NRHJBbiu-59" value="N" style="text;html=1;align=center;verticalAlign=middle;whiteSpace=wrap;rounded=0;fontFamily=Times New Roman;" vertex="1" parent="1">
          <mxGeometry x="200" y="700" width="60" height="30" as="geometry" />
        </mxCell>
        <mxCell id="2RFzk03pveT5NRHJBbiu-60" value="M" style="text;html=1;align=center;verticalAlign=middle;whiteSpace=wrap;rounded=0;fontFamily=Times New Roman;" vertex="1" parent="1">
          <mxGeometry x="270" y="727" width="60" height="30" as="geometry" />
        </mxCell>
        <mxCell id="2RFzk03pveT5NRHJBbiu-61" value="Memerlukan" style="rhombus;whiteSpace=wrap;html=1;fontFamily=Times New Roman;" vertex="1" parent="1">
          <mxGeometry x="523" y="731" width="125" height="50" as="geometry" />
        </mxCell>
        <mxCell id="2RFzk03pveT5NRHJBbiu-62" value="" style="endArrow=none;html=1;rounded=0;exitX=1;exitY=0.5;exitDx=0;exitDy=0;entryX=0.87;entryY=0.979;entryDx=0;entryDy=0;entryPerimeter=0;fontFamily=Times New Roman;" edge="1" parent="1" source="2RFzk03pveT5NRHJBbiu-18" target="2RFzk03pveT5NRHJBbiu-64">
          <mxGeometry width="50" height="50" relative="1" as="geometry">
            <mxPoint x="540.5" y="716" as="sourcePoint" />
            <mxPoint x="543.5" y="756" as="targetPoint" />
          </mxGeometry>
        </mxCell>
        <mxCell id="2RFzk03pveT5NRHJBbiu-63" value="" style="endArrow=none;html=1;rounded=0;exitX=1;exitY=0.5;exitDx=0;exitDy=0;entryX=0;entryY=0.5;entryDx=0;entryDy=0;fontFamily=Times New Roman;" edge="1" parent="1" source="2RFzk03pveT5NRHJBbiu-61" target="2RFzk03pveT5NRHJBbiu-16">
          <mxGeometry width="50" height="50" relative="1" as="geometry">
            <mxPoint x="520" y="716" as="sourcePoint" />
            <mxPoint x="720" y="756" as="targetPoint" />
          </mxGeometry>
        </mxCell>
        <mxCell id="2RFzk03pveT5NRHJBbiu-64" value="N" style="text;html=1;align=center;verticalAlign=middle;whiteSpace=wrap;rounded=0;fontFamily=Times New Roman;" vertex="1" parent="1">
          <mxGeometry x="470.5" y="727" width="60" height="30" as="geometry" />
        </mxCell>
        <mxCell id="2RFzk03pveT5NRHJBbiu-65" value="M" style="text;html=1;align=center;verticalAlign=middle;whiteSpace=wrap;rounded=0;fontFamily=Times New Roman;" vertex="1" parent="1">
          <mxGeometry x="648" y="731" width="50" height="24" as="geometry" />
        </mxCell>
        <mxCell id="2RFzk03pveT5NRHJBbiu-66" value="Melakukan" style="rhombus;whiteSpace=wrap;html=1;fontFamily=Times New Roman;" vertex="1" parent="1">
          <mxGeometry x="160" y="360" width="125" height="50" as="geometry" />
        </mxCell>
        <mxCell id="2RFzk03pveT5NRHJBbiu-67" value="" style="endArrow=none;html=1;rounded=0;exitX=0.5;exitY=1;exitDx=0;exitDy=0;entryX=0;entryY=0.5;entryDx=0;entryDy=0;fontFamily=Times New Roman;" edge="1" parent="1" source="2RFzk03pveT5NRHJBbiu-1" target="2RFzk03pveT5NRHJBbiu-66">
          <mxGeometry width="50" height="50" relative="1" as="geometry">
            <mxPoint x="260" y="310" as="sourcePoint" />
            <mxPoint x="310" y="260" as="targetPoint" />
          </mxGeometry>
        </mxCell>
        <mxCell id="2RFzk03pveT5NRHJBbiu-68" value="" style="endArrow=none;html=1;rounded=0;exitX=1;exitY=0.5;exitDx=0;exitDy=0;entryX=0;entryY=0.5;entryDx=0;entryDy=0;fontFamily=Times New Roman;" edge="1" parent="1" source="2RFzk03pveT5NRHJBbiu-66" target="2RFzk03pveT5NRHJBbiu-19">
          <mxGeometry width="50" height="50" relative="1" as="geometry">
            <mxPoint x="197" y="330" as="sourcePoint" />
            <mxPoint x="247" y="280" as="targetPoint" />
          </mxGeometry>
        </mxCell>
        <mxCell id="2RFzk03pveT5NRHJBbiu-69" value="1" style="text;html=1;align=center;verticalAlign=middle;whiteSpace=wrap;rounded=0;fontFamily=Times New Roman;" vertex="1" parent="1">
          <mxGeometry x="180" y="310" width="60" height="30" as="geometry" />
        </mxCell>
        <mxCell id="2RFzk03pveT5NRHJBbiu-70" value="N" style="text;html=1;align=center;verticalAlign=middle;whiteSpace=wrap;rounded=0;fontFamily=Times New Roman;" vertex="1" parent="1">
          <mxGeometry x="299" y="440" width="60" height="30" as="geometry" />
        </mxCell>
        <mxCell id="2RFzk03pveT5NRHJBbiu-71" value="Segmentasi" style="rounded=0;whiteSpace=wrap;html=1;fontFamily=Times New Roman;" vertex="1" parent="1">
          <mxGeometry x="700" y="365" width="120" height="60" as="geometry" />
        </mxCell>
        <mxCell id="2RFzk03pveT5NRHJBbiu-72" value="&lt;u&gt;Nama Ruang&lt;/u&gt;" style="ellipse;whiteSpace=wrap;html=1;fontFamily=Times New Roman;" vertex="1" parent="1">
          <mxGeometry x="720" y="460" width="80" height="50" as="geometry" />
        </mxCell>
        <mxCell id="2RFzk03pveT5NRHJBbiu-73" value="Jenis Ruang" style="ellipse;whiteSpace=wrap;html=1;fontFamily=Times New Roman;" vertex="1" parent="1">
          <mxGeometry x="620" y="460" width="80" height="50" as="geometry" />
        </mxCell>
        <mxCell id="2RFzk03pveT5NRHJBbiu-74" value="" style="endArrow=none;html=1;rounded=0;entryX=0.5;entryY=1;entryDx=0;entryDy=0;exitX=0.5;exitY=0;exitDx=0;exitDy=0;fontFamily=Times New Roman;" edge="1" parent="1" source="2RFzk03pveT5NRHJBbiu-72" target="2RFzk03pveT5NRHJBbiu-71">
          <mxGeometry width="50" height="50" relative="1" as="geometry">
            <mxPoint x="820" y="520" as="sourcePoint" />
            <mxPoint x="870" y="470" as="targetPoint" />
          </mxGeometry>
        </mxCell>
        <mxCell id="2RFzk03pveT5NRHJBbiu-75" value="" style="endArrow=none;html=1;rounded=0;exitX=0.5;exitY=0;exitDx=0;exitDy=0;entryX=0;entryY=1;entryDx=0;entryDy=0;fontFamily=Times New Roman;" edge="1" parent="1" source="2RFzk03pveT5NRHJBbiu-73" target="2RFzk03pveT5NRHJBbiu-71">
          <mxGeometry width="50" height="50" relative="1" as="geometry">
            <mxPoint x="820" y="520" as="sourcePoint" />
            <mxPoint x="870" y="470" as="targetPoint" />
          </mxGeometry>
        </mxCell>
        <mxCell id="2RFzk03pveT5NRHJBbiu-76" value="Memilih" style="rhombus;whiteSpace=wrap;html=1;fontFamily=Times New Roman;" vertex="1" parent="1">
          <mxGeometry x="495" y="370" width="125" height="50" as="geometry" />
        </mxCell>
        <mxCell id="2RFzk03pveT5NRHJBbiu-77" value="" style="endArrow=none;html=1;rounded=0;exitX=0.5;exitY=0;exitDx=0;exitDy=0;entryX=0.5;entryY=1;entryDx=0;entryDy=0;fontFamily=Times New Roman;" edge="1" parent="1" source="2RFzk03pveT5NRHJBbiu-76" target="2RFzk03pveT5NRHJBbiu-7">
          <mxGeometry width="50" height="50" relative="1" as="geometry">
            <mxPoint x="810" y="370" as="sourcePoint" />
            <mxPoint x="860" y="320" as="targetPoint" />
          </mxGeometry>
        </mxCell>
        <mxCell id="2RFzk03pveT5NRHJBbiu-78" value="" style="endArrow=none;html=1;rounded=0;exitX=1;exitY=0.5;exitDx=0;exitDy=0;entryX=0;entryY=0.5;entryDx=0;entryDy=0;fontFamily=Times New Roman;" edge="1" parent="1" source="2RFzk03pveT5NRHJBbiu-76" target="2RFzk03pveT5NRHJBbiu-71">
          <mxGeometry width="50" height="50" relative="1" as="geometry">
            <mxPoint x="810" y="370" as="sourcePoint" />
            <mxPoint x="860" y="320" as="targetPoint" />
          </mxGeometry>
        </mxCell>
        <mxCell id="2RFzk03pveT5NRHJBbiu-79" value="N" style="text;html=1;align=center;verticalAlign=middle;whiteSpace=wrap;rounded=0;fontFamily=Times New Roman;" vertex="1" parent="1">
          <mxGeometry x="570" y="310" width="60" height="30" as="geometry" />
        </mxCell>
        <mxCell id="2RFzk03pveT5NRHJBbiu-80" value="1" style="text;html=1;align=center;verticalAlign=middle;whiteSpace=wrap;rounded=0;fontFamily=Times New Roman;" vertex="1" parent="1">
          <mxGeometry x="630" y="365" width="60" height="30" as="geometry" />
        </mxCell>
        <mxCell id="2RFzk03pveT5NRHJBbiu-81" value="Memiliki" style="rhombus;whiteSpace=wrap;html=1;fontFamily=Times New Roman;" vertex="1" parent="1">
          <mxGeometry x="557" y="640" width="125" height="50" as="geometry" />
        </mxCell>
        <mxCell id="2RFzk03pveT5NRHJBbiu-82" value="" style="endArrow=none;html=1;rounded=0;exitX=0;exitY=0.5;exitDx=0;exitDy=0;entryX=1;entryY=0.5;entryDx=0;entryDy=0;fontFamily=Times New Roman;" edge="1" parent="1" source="2RFzk03pveT5NRHJBbiu-81" target="2RFzk03pveT5NRHJBbiu-13">
          <mxGeometry width="50" height="50" relative="1" as="geometry">
            <mxPoint x="170" y="645" as="sourcePoint" />
            <mxPoint x="159" y="627" as="targetPoint" />
          </mxGeometry>
        </mxCell>
        <mxCell id="2RFzk03pveT5NRHJBbiu-83" value="" style="endArrow=none;html=1;rounded=0;exitX=1;exitY=0.5;exitDx=0;exitDy=0;entryX=0.5;entryY=0;entryDx=0;entryDy=0;fontFamily=Times New Roman;" edge="1" parent="1" source="2RFzk03pveT5NRHJBbiu-81" target="2RFzk03pveT5NRHJBbiu-16">
          <mxGeometry width="50" height="50" relative="1" as="geometry">
            <mxPoint x="670" y="470" as="sourcePoint" />
            <mxPoint x="710" y="435" as="targetPoint" />
          </mxGeometry>
        </mxCell>
        <mxCell id="2RFzk03pveT5NRHJBbiu-84" value="1" style="text;html=1;align=center;verticalAlign=middle;whiteSpace=wrap;rounded=0;fontFamily=Times New Roman;" vertex="1" parent="1">
          <mxGeometry x="510" y="660" width="60" height="30" as="geometry" />
        </mxCell>
        <mxCell id="2RFzk03pveT5NRHJBbiu-85" value="1" style="text;html=1;align=center;verticalAlign=middle;whiteSpace=wrap;rounded=0;fontFamily=Times New Roman;" vertex="1" parent="1">
          <mxGeometry x="650" y="670" width="60" height="30" as="geometry" />
        </mxCell>
        <mxCell id="2RFzk03pveT5NRHJBbiu-86" value="&lt;u&gt;ID Pembayaran&lt;/u&gt;" style="ellipse;whiteSpace=wrap;html=1;fontFamily=Times New Roman;" vertex="1" parent="1">
          <mxGeometry x="485" y="450" width="80" height="50" as="geometry" />
        </mxCell>
        <mxCell id="2RFzk03pveT5NRHJBbiu-87" value="" style="endArrow=none;html=1;rounded=0;entryX=0.5;entryY=1;entryDx=0;entryDy=0;exitX=1;exitY=0;exitDx=0;exitDy=0;fontFamily=Times New Roman;" edge="1" parent="1" source="2RFzk03pveT5NRHJBbiu-19" target="2RFzk03pveT5NRHJBbiu-86">
          <mxGeometry width="50" height="50" relative="1" as="geometry">
            <mxPoint x="487" y="550" as="sourcePoint" />
            <mxPoint x="517" y="550" as="targetPoint" />
          </mxGeometry>
        </mxCell>
        <mxCell id="2RFzk03pveT5NRHJBbiu-88" value="&lt;u&gt;ID Pemesanan&lt;/u&gt;" style="ellipse;whiteSpace=wrap;html=1;fontFamily=Times New Roman;" vertex="1" parent="1">
          <mxGeometry x="650" y="300" width="80" height="50" as="geometry" />
        </mxCell>
      </root>
    </mxGraphModel>
  </diagram>
</mxfile>
